<?xml version="1.0" standalone="no"?>
<!DOCTYPE svg PUBLIC "-//W3C//DTD SVG 20010904//EN"
 "http://www.w3.org/TR/2001/REC-SVG-20010904/DTD/svg10.dtd">
<svg version="1.0" xmlns="http://www.w3.org/2000/svg"
 width="2048.000000pt" height="2048.000000pt" viewBox="0 0 2048.000000 2048.000000"
 preserveAspectRatio="xMidYMid meet">
<metadata>
Created by potrace 1.14, written by Peter Selinger 2001-2017
</metadata>
<g transform="translate(0.000000,2048.000000) scale(0.100000,-0.100000)"
fill="#000000" stroke="none">
<path d="M14710 20049 c0 -3 -11 -4 -25 -1 -14 2 -25 0 -25 -6 0 -6 -11 -9
-25 -8 -13 2 -22 0 -20 -4 4 -7 -51 -24 -67 -21 -5 0 -8 -3 -8 -8 0 -9 -26
-21 -43 -20 -5 0 -17 -9 -26 -20 -10 -11 -21 -18 -24 -15 -3 3 -20 -8 -36 -25
-18 -18 -36 -29 -43 -25 -6 4 -8 3 -5 -3 7 -11 -20 -28 -37 -24 -5 1 -3 -5 4
-14 7 -9 9 -15 4 -14 -18 3 -37 -1 -31 -7 3 -3 -3 -15 -13 -27 -11 -11 -17
-23 -15 -28 3 -4 -4 -5 -15 -2 -16 4 -19 2 -13 -13 5 -14 3 -16 -12 -11 -16 7
-16 5 -4 -10 8 -9 9 -14 3 -10 -14 8 -27 -20 -17 -35 3 -6 1 -8 -4 -5 -6 4
-16 0 -23 -8 -11 -13 -10 -14 6 -8 16 6 17 5 4 -9 -8 -9 -19 -13 -24 -10 -5 3
-6 -8 -2 -24 6 -26 6 -27 -6 -11 -12 16 -13 16 -15 -5 -5 -61 -10 -80 -21 -87
-6 -4 -10 -17 -7 -30 4 -19 2 -21 -11 -10 -13 10 -13 8 -4 -15 5 -15 6 -25 1
-21 -5 3 -12 1 -16 -5 -3 -5 -1 -10 4 -10 6 0 2 -9 -10 -21 -16 -16 -18 -23
-8 -35 9 -11 9 -14 -1 -14 -7 0 -10 -7 -6 -15 3 -8 0 -15 -6 -15 -6 0 -5 -6 3
-17 10 -11 10 -14 2 -9 -7 4 -13 4 -14 -1 -3 -32 -11 -59 -19 -61 -6 -2 -7 -8
-4 -13 3 -6 12 -5 22 3 9 7 5 -1 -7 -19 -15 -19 -22 -40 -18 -52 3 -12 1 -19
-4 -15 -5 3 -9 2 -10 -3 0 -4 -2 -20 -4 -35 -2 -15 1 -30 6 -34 6 -4 1 -17
-13 -32 -13 -14 -16 -21 -8 -17 13 8 13 7 0 -10 -8 -10 -14 -20 -12 -22 6 -9
1 -54 -6 -49 -5 3 -9 -1 -9 -9 0 -8 5 -15 11 -15 6 0 5 -4 -3 -9 -8 -5 -11
-16 -8 -25 4 -9 2 -16 -3 -16 -5 0 -7 -11 -4 -25 2 -14 1 -25 -4 -25 -5 0 -8
-25 -8 -55 1 -30 -3 -55 -9 -55 -5 0 -4 -4 4 -9 11 -7 10 -11 -5 -20 -11 -6
-14 -11 -8 -11 11 0 12 -35 2 -46 -4 -3 -4 -12 -1 -20 3 -8 -1 -14 -8 -14 -11
0 -11 -3 1 -10 8 -5 10 -10 5 -10 -6 0 -11 -12 -10 -27 0 -16 -6 -34 -15 -41
-8 -7 -10 -12 -5 -11 22 3 29 -2 16 -10 -7 -5 -14 -27 -15 -49 0 -22 -4 -38
-7 -36 -4 2 -10 -3 -13 -12 -3 -8 -2 -12 4 -9 6 3 10 -1 10 -10 0 -9 -4 -13
-10 -10 -6 3 -7 -1 -4 -10 4 -8 1 -22 -6 -30 -10 -12 -10 -15 0 -15 9 0 9 -4
3 -12 -6 -7 -9 -23 -8 -36 1 -16 -3 -21 -12 -18 -9 4 -11 2 -6 -7 11 -18 12
-37 2 -37 -5 0 -7 -13 -5 -30 2 -16 -1 -30 -5 -30 -5 0 -9 -5 -9 -11 0 -5 6
-7 13 -4 6 4 5 1 -4 -7 -9 -7 -14 -19 -12 -25 3 -7 -1 -13 -9 -13 -10 0 -9 -3
2 -10 8 -5 10 -10 4 -10 -7 0 -15 -7 -18 -16 -4 -9 -2 -13 5 -8 6 3 5 -4 -3
-17 -8 -13 -14 -31 -14 -39 1 -8 -5 -21 -14 -28 -8 -8 -10 -11 -4 -8 7 3 15
-1 18 -10 3 -8 2 -12 -4 -9 -9 6 -15 -16 -11 -39 1 -4 -3 -14 -10 -22 -6 -7
-8 -18 -4 -24 3 -5 -1 -10 -11 -10 -13 0 -14 -3 -4 -15 10 -12 9 -15 -4 -15
-10 0 -14 -5 -11 -10 4 -6 1 -18 -7 -27 -11 -14 -11 -16 2 -9 8 4 4 -1 -9 -12
-17 -14 -20 -21 -12 -27 9 -5 7 -13 -9 -27 -12 -11 -19 -26 -16 -33 2 -7 -3
-16 -12 -20 -14 -5 -14 -7 -2 -15 12 -8 12 -10 -4 -10 -11 0 -17 -3 -13 -6 3
-3 -1 -13 -8 -22 -8 -10 -30 -37 -49 -60 -20 -24 -34 -48 -30 -53 3 -5 -3 -6
-12 -2 -13 5 -16 3 -11 -10 4 -11 2 -14 -7 -11 -8 3 -17 1 -21 -5 -4 -8 -12
-8 -25 -1 -15 8 -22 5 -34 -12 -9 -12 -16 -17 -16 -10 0 10 -5 10 -21 1 -17
-9 -20 -8 -14 1 6 10 1 12 -19 8 -14 -3 -29 -2 -31 2 -2 4 -16 6 -30 5 -14 -2
-25 1 -25 5 0 5 -20 12 -45 16 -25 3 -48 10 -50 15 -3 4 -12 6 -20 2 -9 -3
-15 1 -15 8 0 11 -3 11 -10 -1 -5 -8 -10 -10 -10 -4 0 7 -12 14 -27 17 -16 3
-39 8 -53 12 -14 3 -29 7 -35 8 -5 2 -16 6 -22 10 -8 5 -13 3 -13 -5 0 -8 -3
-9 -8 -3 -9 14 -90 38 -102 30 -6 -3 -10 -1 -10 5 0 7 -7 9 -16 6 -9 -3 -21
-3 -27 1 -13 8 -28 11 -69 15 -16 1 -28 6 -28 11 0 5 -9 7 -20 4 -11 -3 -22
-1 -25 4 -3 4 -12 6 -20 2 -8 -3 -15 -1 -15 4 0 8 -28 12 -92 16 -16 1 -28 5
-28 11 0 5 -3 7 -6 3 -3 -3 -17 -2 -30 3 -17 7 -24 6 -24 -3 0 -9 -3 -8 -9 1
-4 8 -11 13 -15 13 -3 -1 -7 -1 -8 0 -22 6 -38 5 -38 -4 0 -6 -7 -2 -15 9 -10
13 -14 14 -15 5 0 -10 -3 -11 -14 -2 -8 6 -18 11 -22 9 -5 -1 -34 2 -64 7 -30
5 -61 8 -67 6 -7 -1 -13 3 -13 10 0 8 -4 8 -15 -1 -8 -7 -15 -8 -15 -3 0 5
-24 11 -52 12 -29 1 -54 6 -56 11 -2 5 -13 5 -28 -1 -31 -11 -37 -11 -30 -1 3
5 -18 10 -46 11 -28 1 -56 5 -62 10 -6 5 -20 5 -31 1 -11 -4 -28 -3 -39 2 -13
7 -21 6 -27 -3 -7 -12 -9 -12 -9 0 0 8 -3 11 -7 8 -3 -4 -12 -2 -20 4 -9 9
-13 8 -13 0 0 -8 -6 -9 -17 -3 -10 5 -37 8 -60 7 -24 0 -43 1 -43 4 0 4 -26 7
-58 7 -130 3 -187 9 -194 19 -5 6 -8 5 -8 -3 0 -8 -5 -10 -12 -5 -17 10 -39
10 -59 1 -9 -4 -19 -4 -23 -1 -11 11 -36 12 -36 2 0 -6 -6 -7 -12 -2 -7 4 -26
8 -43 10 -107 8 -137 8 -142 0 -3 -4 -13 -1 -23 8 -12 11 -20 13 -25 6 -3 -6
-11 -11 -16 -11 -6 0 -8 4 -5 8 2 4 -4 8 -14 8 -10 0 -16 -4 -14 -8 3 -4 -2
-8 -10 -8 -9 0 -16 4 -16 9 0 11 -39 9 -58 -3 -7 -4 -12 -2 -12 4 0 8 -6 8
-20 0 -16 -9 -22 -8 -26 5 -3 8 -10 12 -15 9 -5 -3 -6 -11 -2 -17 3 -7 -4 -3
-17 8 -13 11 -20 15 -16 8 4 -8 -4 -12 -26 -12 -18 0 -66 -1 -105 -3 -40 -2
-73 1 -73 6 0 5 -5 5 -12 0 -16 -11 -39 -11 -55 -1 -7 5 -13 4 -13 -2 0 -7 -9
-8 -22 -3 -29 10 -90 8 -108 -3 -9 -5 -11 -4 -6 3 10 16 -16 15 -33 0 -9 -9
-12 -9 -7 -1 4 8 -9 11 -46 9 -29 -2 -59 2 -67 8 -11 8 -13 8 -7 -2 6 -10 -1
-12 -33 -8 -29 3 -39 2 -35 -6 5 -7 2 -8 -6 -3 -19 12 -70 12 -70 0 0 -5 -5
-3 -10 5 -7 11 -10 11 -10 2 0 -10 -5 -10 -20 -2 -11 6 -20 7 -20 3 0 -4 -20
-8 -45 -8 -25 0 -45 4 -45 9 0 4 -6 4 -12 -1 -16 -13 -48 -13 -48 -1 0 5 -5 6
-12 2 -19 -12 -208 -11 -208 1 0 7 -3 7 -8 0 -4 -6 -59 -10 -129 -10 -68 0
-123 -2 -123 -5 0 -3 -28 -5 -62 -4 -36 1 -66 -4 -70 -10 -6 -8 -8 -8 -8 1 0
12 -37 12 -57 0 -6 -4 -15 -3 -18 3 -4 7 -12 7 -18 2 -15 -10 -48 -9 -66 2 -9
6 -12 5 -7 -2 4 -6 -1 -11 -11 -10 -10 0 -58 -3 -108 -7 -49 -4 -100 -8 -112
-9 -13 0 -23 -3 -23 -6 0 -3 -15 -4 -32 -4 -18 1 -41 -3 -52 -8 -14 -8 -17 -7
-11 3 6 8 4 10 -5 4 -8 -5 -32 -10 -54 -11 -23 -1 -41 -3 -41 -4 0 -3 -42 -10
-82 -12 -24 -2 -43 -6 -43 -9 0 -3 -16 -5 -35 -4 -20 1 -35 -3 -35 -9 0 -6 -5
-4 -10 4 -5 8 -10 10 -10 5 0 -6 -12 -12 -27 -14 -52 -5 -78 -9 -83 -11 -3 -1
-20 -2 -37 -2 -20 0 -30 -5 -26 -11 4 -6 0 -8 -9 -4 -9 3 -19 3 -23 -1 -4 -4
-19 -8 -33 -8 -15 -1 -40 -4 -57 -8 -16 -4 -41 -9 -55 -12 -14 -3 -29 -7 -35
-8 -5 -2 -28 -6 -50 -11 -22 -4 -48 -12 -59 -17 -14 -8 -17 -7 -10 4 6 10 5
11 -7 2 -8 -6 -22 -10 -32 -9 -9 2 -14 -1 -11 -7 3 -5 0 -8 -7 -7 -8 1 -26 -1
-40 -5 -14 -4 -34 -9 -45 -11 -10 -2 -19 -4 -19 -5 0 -2 -28 -7 -65 -13 -11
-2 -23 -6 -26 -10 -4 -4 -18 -7 -31 -7 -13 0 -23 -4 -23 -8 0 -7 -18 -11 -62
-13 -10 0 -18 -5 -18 -11 0 -5 -6 -8 -14 -5 -7 3 -19 0 -25 -6 -6 -6 -11 -8
-11 -5 0 4 -23 -2 -51 -13 -29 -10 -56 -16 -60 -13 -5 3 -9 0 -9 -5 0 -6 -3
-10 -7 -9 -5 1 -28 -5 -53 -12 -25 -8 -47 -14 -50 -14 -3 -1 -9 -4 -15 -7 -5
-4 -25 -10 -42 -14 -18 -3 -33 -10 -33 -15 0 -5 -9 -7 -20 -5 -11 2 -20 -1
-20 -7 0 -6 -3 -8 -7 -5 -3 4 -12 2 -20 -4 -7 -6 -13 -8 -13 -4 0 4 -7 2 -15
-5 -12 -10 -15 -10 -15 0 0 7 -7 10 -15 6 -11 -4 -15 0 -13 11 3 17 -1 19 -38
22 -9 0 -12 6 -8 13 5 8 2 9 -9 5 -11 -4 -17 -1 -17 8 0 8 -4 15 -9 15 -9 0
-109 95 -113 108 -5 16 -46 50 -54 44 -4 -4 -4 -1 0 6 4 7 -6 25 -28 46 -20
18 -36 38 -36 45 0 6 -6 11 -14 11 -12 0 -17 9 -25 45 -1 6 -11 13 -22 17 -12
5 -19 17 -20 35 0 15 -3 23 -6 16 -3 -10 -7 -10 -18 0 -7 7 -11 15 -9 19 2 3
-3 13 -12 22 -8 9 -13 20 -10 24 6 11 -30 43 -39 34 -3 -4 -3 1 1 11 3 10 1
17 -6 17 -6 0 -8 5 -5 10 3 6 2 10 -4 10 -10 0 -27 38 -23 53 1 4 -5 7 -13 7
-8 0 -15 7 -15 15 0 22 -22 65 -31 59 -4 -2 -6 4 -4 16 2 11 1 19 -3 19 -20
-3 -23 3 -11 19 7 9 9 14 5 10 -5 -4 -26 29 -47 74 -21 45 -45 86 -53 90 -13
7 -14 13 -5 30 8 15 8 19 0 14 -6 -4 -12 -2 -12 3 -1 6 -2 17 -3 24 -1 6 -7
11 -14 9 -7 -1 -11 1 -10 5 3 15 -14 63 -23 63 -5 0 -9 5 -9 11 0 5 5 7 12 3
7 -5 8 -3 4 5 -5 7 -14 10 -22 7 -10 -4 -11 0 -4 19 8 20 6 25 -6 25 -8 0 -12
5 -9 10 3 6 1 10 -6 10 -8 0 -8 4 1 16 8 8 9 14 4 13 -21 -4 -28 2 -14 11 13
8 12 10 -2 10 -11 0 -18 8 -18 21 0 11 -4 18 -9 14 -6 -3 -8 3 -6 14 2 11 -5
29 -15 41 -10 12 -17 30 -15 41 2 10 0 19 -6 19 -5 0 -9 9 -9 19 0 11 -6 22
-12 24 -10 4 -10 6 0 6 10 1 10 5 -2 17 -9 8 -14 20 -11 25 4 5 1 9 -5 9 -6 0
-9 4 -6 9 3 5 -1 12 -10 15 -14 5 -14 9 -3 23 10 12 10 14 2 9 -7 -4 -14 -2
-14 3 -3 20 -5 26 -17 47 -6 12 -8 24 -5 28 3 3 -2 6 -12 6 -18 0 -18 1 1 15
19 15 19 15 0 8 -15 -5 -18 -3 -13 10 3 9 2 17 -3 17 -6 0 -10 8 -10 18 0 10
-5 23 -12 30 -7 7 -9 12 -5 12 4 0 2 10 -5 23 -7 12 -11 25 -10 29 1 3 -5 12
-13 18 -8 7 -15 20 -15 30 0 9 -3 20 -7 24 -4 3 -8 14 -9 23 -2 9 -9 20 -17
25 -10 5 -13 16 -9 30 3 14 1 19 -6 14 -6 -4 -12 3 -14 16 -2 13 -9 22 -15 21
-7 -2 -10 4 -7 12 4 8 2 15 -4 15 -5 0 -8 12 -6 26 1 15 -3 28 -12 31 -8 3
-14 11 -14 19 0 8 -5 14 -11 14 -5 0 -8 4 -4 9 3 5 0 15 -7 23 -23 25 -48 75
-40 83 4 5 2 5 -4 2 -7 -4 -14 3 -18 18 -4 14 -11 25 -17 25 -6 0 -7 5 -4 10
3 6 1 10 -4 10 -6 0 -11 7 -11 15 0 8 -4 15 -10 15 -5 0 -10 6 -10 14 0 8 -7
16 -15 20 -8 3 -15 12 -15 21 0 8 -5 15 -11 15 -5 0 -7 5 -4 10 3 6 -1 10 -9
10 -9 0 -16 5 -16 10 0 6 -16 25 -35 43 -19 17 -35 38 -35 45 0 7 -3 11 -8 9
-4 -3 -13 1 -20 9 -7 8 -10 14 -6 14 4 0 -13 14 -37 32 -24 18 -50 31 -56 30
-7 -2 -13 3 -13 9 0 7 -3 10 -6 6 -4 -3 -13 1 -21 9 -9 8 -21 13 -28 10 -8 -3
-16 2 -19 11 -4 8 -13 13 -21 9 -8 -3 -15 0 -15 6 0 6 -3 8 -7 5 -3 -4 -12 -2
-20 5 -13 11 -40 14 -156 21 -42 3 -60 0 -64 -10 -3 -7 -9 -10 -14 -7 -5 3 -7
11 -3 17 3 7 0 5 -8 -3 -7 -8 -27 -16 -44 -17 -17 -2 -44 -10 -60 -18 -16 -8
-35 -15 -41 -15 -7 0 -13 -5 -13 -12 0 -6 -3 -9 -6 -5 -3 3 -14 -2 -25 -11
-11 -9 -23 -17 -27 -17 -4 0 -18 -10 -32 -22 -13 -13 -30 -23 -38 -23 -8 0
-12 -6 -8 -15 3 -8 1 -15 -4 -15 -6 0 -28 -18 -50 -40 -22 -22 -37 -40 -34
-40 4 0 -9 -15 -28 -32 -36 -35 -38 -38 -38 -64 0 -8 -4 -12 -10 -9 -5 3 -10
-1 -10 -9 0 -9 -5 -16 -11 -16 -5 0 -8 -4 -5 -8 3 -5 -2 -18 -12 -28 -18 -21
-25 -38 -26 -66 0 -9 -3 -15 -7 -12 -6 3 -18 -15 -24 -38 -2 -5 -4 -11 -5 -15
-1 -5 -2 -11 -1 -15 0 -5 -3 -8 -9 -8 -5 0 -7 -7 -4 -15 4 -10 0 -15 -11 -15
-14 0 -15 -3 -5 -15 9 -11 9 -15 1 -15 -7 0 -10 -4 -6 -9 3 -5 1 -12 -5 -16
-6 -4 -8 -10 -5 -15 3 -5 1 -11 -4 -15 -5 -3 -8 -14 -6 -25 2 -11 -1 -20 -7
-20 -6 0 -8 -3 -5 -7 4 -3 1 -13 -6 -21 -6 -9 -7 -13 -2 -10 6 4 11 -2 11 -13
0 -10 -4 -19 -9 -19 -5 0 -7 -11 -5 -25 3 -13 2 -22 -2 -20 -14 8 -19 -22 -7
-35 9 -10 9 -11 -2 -5 -11 6 -13 4 -8 -8 4 -10 1 -17 -5 -17 -9 0 -9 -3 -1
-11 9 -9 8 -15 -3 -26 -11 -11 -12 -19 -4 -28 6 -7 7 -16 2 -19 -10 -6 -9 -36
2 -54 4 -7 2 -12 -4 -12 -7 0 -8 -6 -1 -18 6 -11 6 -24 -1 -36 -8 -14 -7 -17
1 -12 8 5 8 0 2 -17 -6 -16 -6 -28 2 -36 8 -8 8 -11 -2 -11 -11 0 -11 -3 -1
-15 10 -12 10 -15 0 -15 -10 0 -10 -3 0 -15 9 -11 9 -15 1 -15 -8 0 -9 -5 -1
-19 5 -11 6 -22 2 -25 -9 -5 -7 -64 2 -73 3 -4 1 -12 -5 -20 -9 -9 -8 -13 0
-13 8 0 9 -6 2 -18 -6 -11 -6 -24 0 -35 7 -12 6 -17 -1 -17 -6 0 -8 -5 -4 -12
4 -6 8 -59 10 -117 2 -108 10 -186 19 -201 3 -5 1 -11 -5 -15 -5 -3 -10 -11
-10 -16 0 -6 4 -8 9 -5 5 3 9 -7 9 -22 0 -51 6 -87 17 -94 6 -5 6 -8 -2 -8 -8
0 -9 -9 -3 -30 6 -19 5 -32 -2 -36 -7 -5 -4 -12 7 -21 11 -7 14 -13 7 -13 -8
0 -9 -7 -3 -22 4 -13 7 -31 6 -40 -2 -10 0 -18 3 -18 4 0 8 -16 9 -36 1 -21 5
-44 9 -53 11 -27 11 -51 0 -51 -6 0 -6 -4 2 -8 7 -5 14 -26 17 -48 2 -22 8
-38 15 -36 8 2 8 -3 0 -17 -7 -13 -7 -22 0 -26 6 -4 8 -10 6 -14 -3 -4 -1 -13
4 -21 5 -9 4 -20 -3 -29 -10 -12 -9 -13 2 -6 11 6 13 4 8 -8 -3 -9 -2 -19 4
-23 6 -3 8 -13 4 -22 -3 -8 -1 -18 5 -22 5 -3 11 -18 12 -33 1 -15 7 -27 13
-27 5 0 3 -5 -5 -10 -12 -7 -12 -10 -1 -10 7 0 11 -6 8 -14 -3 -7 -1 -18 4
-23 6 -6 13 -26 15 -44 3 -19 10 -38 15 -44 5 -5 9 -22 9 -37 0 -15 4 -28 8
-28 4 0 8 -8 9 -17 0 -10 3 -29 7 -43 l5 -25 -24 28 c-13 15 -29 27 -35 27 -5
0 -10 5 -10 10 0 6 -7 10 -16 10 -8 0 -12 5 -9 10 3 6 -1 10 -9 10 -8 0 -24
12 -35 26 -12 15 -21 24 -21 20 0 -6 -29 16 -62 47 -10 9 -18 14 -18 11 0 -4
-13 7 -30 24 -16 18 -30 26 -30 20 0 -7 -7 -2 -16 10 -8 12 -20 19 -26 16 -7
-5 -8 -2 -4 5 5 8 0 14 -13 18 -12 3 -21 9 -21 14 0 5 -4 9 -10 9 -10 0 -37
20 -70 51 -9 8 -22 13 -30 11 -7 -3 -10 0 -6 7 4 6 1 11 -8 11 -9 0 -16 5 -16
10 0 6 -5 10 -10 10 -6 0 -20 9 -32 20 -12 11 -28 20 -35 20 -7 0 -13 5 -13
10 0 6 -6 10 -14 10 -8 0 -16 7 -20 15 -3 8 -9 14 -13 14 -16 -4 -43 14 -36
24 3 5 1 7 -5 3 -6 -3 -17 1 -25 9 -9 8 -23 15 -31 15 -9 0 -16 7 -16 15 0 9
-6 12 -17 8 -10 -4 -14 -2 -10 4 3 5 -9 16 -28 23 -19 8 -35 17 -35 22 0 4 -7
8 -16 8 -8 0 -12 5 -9 10 4 6 3 9 -2 8 -13 -4 -103 43 -103 54 0 5 -4 6 -10 3
-5 -3 -10 -1 -10 5 0 6 -4 8 -10 5 -5 -3 -10 -2 -10 3 0 4 -16 14 -35 22 -19
8 -35 18 -35 22 0 5 -4 6 -10 3 -5 -3 -10 -2 -10 2 0 5 -16 15 -35 22 -19 7
-35 16 -35 21 0 4 -7 11 -16 14 -9 3 -12 2 -8 -5 3 -6 -3 -5 -15 3 -12 7 -21
16 -21 20 0 5 -7 8 -15 8 -17 0 -57 20 -67 35 -4 5 -10 6 -14 3 -3 -4 -13 -1
-21 7 -8 8 -22 15 -32 15 -9 0 -27 9 -38 19 -12 11 -23 17 -26 14 -5 -4 -65
24 -77 37 -3 3 -14 6 -25 6 -11 0 -19 6 -17 13 1 7 -2 10 -8 6 -5 -3 -24 0
-42 8 -18 8 -53 24 -78 35 -25 11 -55 22 -65 24 -11 1 -23 7 -26 11 -3 4 -16
9 -27 10 -12 1 -22 5 -22 10 0 4 -4 6 -9 2 -5 -3 -16 2 -25 10 -10 11 -17 12
-22 4 -5 -8 -8 -8 -14 0 -4 7 -17 13 -28 14 -12 1 -22 4 -22 8 0 6 -35 16 -90
26 -13 2 -27 7 -30 11 -3 4 -16 9 -30 11 -14 1 -27 6 -30 10 -3 3 -9 6 -15 6
-29 1 -145 30 -145 36 0 4 -8 6 -18 4 -9 -1 -34 3 -55 10 -20 7 -34 8 -31 3 4
-6 0 -6 -12 0 -17 9 -58 17 -125 26 -15 2 -32 6 -38 10 -6 4 -11 1 -11 -6 0
-8 -3 -9 -8 -3 -4 6 -16 11 -27 12 -11 0 -54 4 -95 8 -140 14 -355 9 -495 -11
-16 -3 -37 -5 -45 -6 -8 0 -21 -6 -29 -12 -12 -9 -13 -8 -6 3 6 11 5 12 -6 5
-8 -4 -18 -9 -24 -11 -5 -1 -21 -4 -34 -7 -12 -3 -30 -11 -39 -18 -12 -10 -14
-10 -8 0 4 6 3 12 -3 12 -5 0 -11 -4 -13 -10 -1 -5 -15 -11 -30 -12 -16 -1
-28 -6 -28 -11 0 -4 -4 -6 -9 -2 -5 3 -16 -1 -24 -9 -8 -8 -17 -13 -20 -10 -6
7 -141 -57 -145 -68 -2 -4 -12 -8 -23 -8 -11 0 -22 -7 -25 -15 -4 -8 -10 -12
-15 -9 -5 3 -23 -8 -39 -25 -17 -16 -30 -27 -30 -24 0 3 -7 0 -15 -7 -8 -7
-12 -17 -8 -23 3 -6 1 -7 -5 -3 -6 4 -19 -2 -29 -14 -10 -11 -23 -20 -30 -20
-7 0 -13 -4 -13 -9 0 -13 -47 -60 -54 -54 -3 4 -6 -1 -6 -10 0 -10 -4 -17 -9
-17 -5 0 -22 -20 -38 -45 -15 -25 -32 -45 -36 -45 -5 0 -5 -4 -2 -10 3 -5 2
-10 -4 -10 -10 0 -27 -39 -23 -53 1 -5 -2 -6 -7 -3 -7 5 -21 -14 -25 -34 -1
-3 -5 -11 -9 -17 -5 -7 -5 -18 -1 -25 4 -7 3 -8 -4 -4 -7 4 -12 1 -12 -8 0 -9
-5 -16 -11 -16 -5 0 -8 -4 -5 -8 3 -5 -1 -20 -9 -35 -8 -15 -11 -27 -7 -27 3
0 1 -5 -5 -11 -6 -6 -9 -18 -6 -25 3 -8 0 -14 -7 -14 -7 0 -10 -7 -6 -15 3 -8
1 -15 -4 -15 -5 0 -7 -9 -5 -20 2 -11 -2 -20 -8 -20 -7 0 -6 -4 3 -10 8 -5 10
-10 5 -10 -6 0 -12 -14 -13 -32 -2 -17 -7 -37 -12 -43 -6 -7 -5 -16 2 -23 7
-7 8 -12 2 -12 -11 0 -12 -4 -17 -155 -2 -55 1 -106 6 -112 6 -9 5 -13 -4 -13
-11 0 -11 -2 1 -10 11 -7 11 -10 2 -10 -8 0 -10 -5 -6 -12 4 -6 8 -31 9 -54 0
-24 4 -47 8 -50 4 -4 7 -23 7 -43 0 -20 7 -49 15 -64 8 -16 9 -25 3 -21 -8 5
-9 1 -3 -12 4 -10 8 -29 8 -41 1 -13 5 -23 9 -23 4 0 8 -16 8 -36 0 -21 4 -33
10 -29 5 3 10 -4 10 -17 -1 -34 5 -67 13 -74 4 -4 7 -16 7 -26 0 -10 4 -18 8
-18 4 0 9 -12 10 -27 1 -15 7 -30 13 -34 6 -3 10 -9 9 -13 -1 -4 0 -16 3 -27
3 -10 6 -23 7 -27 0 -4 8 -17 16 -29 8 -13 11 -23 7 -23 -4 0 2 -7 13 -16 10
-8 13 -13 7 -9 -7 3 -13 1 -13 -4 0 -6 4 -11 10 -11 5 0 9 -3 9 -7 -3 -19 2
-34 9 -29 4 2 9 -7 10 -22 1 -14 12 -37 25 -51 12 -13 16 -21 10 -17 -7 4 -13
2 -13 -3 0 -6 4 -11 9 -11 8 0 24 -34 24 -50 0 -3 8 -11 19 -18 10 -7 16 -17
13 -22 -8 -13 17 -60 28 -53 6 3 7 1 4 -4 -4 -6 3 -23 15 -39 13 -15 17 -25
10 -21 -8 6 -10 3 -6 -7 3 -9 10 -16 14 -16 4 0 11 -11 14 -25 4 -16 11 -23
18 -19 7 4 8 3 4 -5 -4 -6 2 -23 13 -37 11 -15 18 -30 15 -35 -3 -5 1 -9 9 -9
7 0 19 -16 27 -35 8 -19 17 -35 22 -35 4 0 8 -7 8 -16 0 -9 5 -12 12 -8 7 4 8
3 4 -5 -4 -6 -1 -18 6 -26 31 -34 38 -45 31 -45 -4 0 0 -5 10 -11 9 -5 17 -14
17 -20 0 -10 10 -23 42 -59 9 -10 14 -20 12 -23 -3 -3 6 -16 20 -30 14 -15 26
-33 26 -42 0 -8 7 -15 16 -15 10 0 14 -6 11 -14 -4 -9 2 -17 14 -21 10 -4 19
-13 19 -21 0 -8 5 -14 12 -14 6 0 9 -3 5 -6 -3 -3 10 -21 28 -40 19 -19 35
-38 35 -42 0 -4 11 -18 23 -32 12 -14 21 -28 19 -32 -1 -5 3 -8 9 -8 5 0 7 -6
3 -12 -5 -8 0 -7 11 2 11 9 16 10 11 3 -4 -7 -2 -13 3 -13 6 0 10 -6 8 -12 -1
-7 4 -12 11 -10 8 1 11 -2 8 -7 -3 -5 16 -33 43 -62 27 -29 47 -57 45 -61 -5
-7 10 -12 28 -9 5 0 7 -2 7 -7 -3 -18 2 -32 12 -32 13 0 39 -25 39 -39 0 -5 9
-13 20 -16 11 -4 18 -11 15 -16 -4 -5 -1 -9 5 -9 6 0 8 -5 4 -12 -4 -6 -3 -8
3 -5 11 7 45 -28 36 -37 -4 -3 0 -6 8 -6 16 0 49 -34 49 -50 0 -6 7 -10 16
-10 8 0 13 -4 10 -9 -3 -5 3 -11 14 -14 11 -3 20 -12 20 -21 0 -9 4 -16 10
-16 13 0 50 -37 50 -49 0 -6 5 -13 12 -17 7 -4 8 -3 4 4 -5 8 -2 10 8 6 9 -3
15 -9 14 -12 -2 -20 3 -32 12 -27 6 3 13 -1 16 -9 3 -9 12 -16 20 -16 8 0 14
-7 14 -16 0 -8 5 -12 10 -9 9 6 14 -8 11 -28 0 -4 2 -6 6 -5 14 4 54 -23 48
-31 -3 -5 6 -12 20 -15 14 -4 25 -13 25 -21 0 -7 9 -16 19 -20 11 -3 22 -12
25 -20 3 -8 13 -15 21 -15 9 0 13 -4 10 -10 -3 -5 0 -10 8 -10 8 0 17 -7 21
-15 3 -8 13 -15 22 -15 10 0 14 -5 10 -16 -3 -8 -2 -12 4 -9 5 3 18 -3 30 -15
11 -11 20 -18 20 -15 0 3 6 0 14 -7 8 -7 12 -16 9 -20 -2 -5 6 -8 17 -8 15 0
20 -5 17 -14 -4 -10 0 -14 14 -11 17 4 24 -6 20 -28 -1 -5 3 -6 9 -2 13 8 42
-14 34 -26 -3 -5 -2 -8 3 -7 15 4 53 -13 48 -22 -7 -11 30 -32 39 -23 3 3 6
-2 6 -12 0 -10 3 -16 6 -12 3 3 16 -5 28 -17 11 -13 27 -21 34 -19 6 3 12 -2
12 -11 0 -9 8 -16 21 -16 13 0 18 -4 13 -12 -5 -8 -2 -9 10 -5 14 5 17 3 12
-8 -3 -8 -2 -14 2 -13 10 3 52 -21 76 -43 11 -11 26 -19 33 -19 7 0 18 -9 25
-20 7 -11 16 -20 21 -20 4 0 5 5 1 12 -4 7 -3 8 4 4 7 -4 12 -14 12 -23 0 -13
2 -14 17 -2 9 8 14 9 10 3 -7 -12 19 -29 37 -25 5 1 3 -5 -4 -14 -12 -14 -12
-16 1 -14 19 3 69 -21 69 -34 0 -6 3 -8 6 -4 3 3 14 -3 25 -14 11 -11 24 -17
29 -14 6 4 10 1 10 -4 0 -6 7 -11 15 -11 8 0 15 -8 15 -17 0 -15 2 -16 10 -3
7 12 10 12 10 1 0 -8 6 -11 16 -7 8 3 12 2 9 -4 -3 -6 1 -10 10 -10 9 0 13 -4
10 -10 -3 -5 3 -10 14 -10 12 0 21 -4 21 -9 0 -5 14 -12 30 -16 17 -4 30 -11
30 -16 0 -6 5 -7 10 -4 6 3 10 1 10 -4 0 -6 3 -10 8 -9 10 3 86 -34 94 -46 4
-6 8 -7 8 -3 0 4 10 -3 23 -15 23 -23 27 -43 13 -66 -4 -7 -2 -12 6 -12 9 0 9
-3 -2 -10 -8 -5 -11 -10 -7 -10 4 0 3 -9 -3 -19 -7 -14 -6 -21 3 -24 9 -4 9
-6 -1 -6 -7 -1 -10 -5 -7 -11 3 -5 2 -10 -4 -10 -6 0 -8 -6 -5 -14 3 -8 -2
-28 -11 -45 -9 -18 -13 -36 -10 -41 3 -6 2 -10 -4 -10 -5 0 -13 -15 -16 -32
-4 -18 -12 -38 -17 -45 -5 -7 -7 -16 -4 -21 3 -6 -1 -15 -9 -22 -7 -6 -11 -18
-8 -26 3 -8 1 -14 -5 -14 -5 0 -8 -11 -7 -25 2 -14 -1 -23 -6 -19 -5 3 -9 -6
-9 -20 0 -14 -4 -27 -9 -31 -6 -3 -8 -14 -6 -25 2 -11 0 -20 -6 -20 -5 0 -8
-3 -8 -7 1 -5 1 -10 -1 -13 -1 -3 -4 -16 -6 -30 -2 -13 -10 -28 -17 -32 -9 -6
-8 -8 3 -8 11 0 11 -3 2 -12 -7 -7 -12 -22 -12 -35 0 -13 -4 -23 -9 -23 -6 0
-8 -9 -6 -20 2 -11 0 -20 -5 -20 -5 0 -7 -9 -5 -20 2 -11 -1 -22 -6 -25 -5 -4
-7 -11 -4 -16 4 -5 1 -9 -6 -9 -8 0 -8 -4 1 -15 10 -12 9 -16 -3 -21 -9 -3
-14 -16 -13 -35 1 -16 -2 -29 -8 -29 -5 0 -6 -3 -3 -7 4 -3 2 -12 -4 -20 -6
-7 -9 -13 -6 -13 3 0 0 -19 -7 -43 -7 -24 -12 -51 -10 -60 1 -9 -1 -17 -5 -17
-4 0 -7 -10 -6 -22 1 -13 -2 -26 -7 -29 -5 -3 -9 -22 -10 -43 -1 -20 -5 -39
-9 -41 -4 -3 -6 -16 -4 -30 1 -14 -2 -25 -7 -25 -5 0 -6 -4 -3 -10 3 -5 3 -15
-1 -21 -4 -7 -9 -26 -10 -43 -4 -33 -11 -71 -14 -71 -1 0 -3 -23 -4 -50 -2
-28 -8 -61 -15 -73 -9 -16 -9 -22 0 -22 8 0 8 -4 1 -13 -6 -7 -13 -35 -16 -62
-2 -28 -5 -50 -6 -50 -1 0 -7 -48 -13 -120 -2 -17 -5 -35 -8 -40 -3 -6 -5 -23
-5 -40 1 -16 -3 -33 -9 -37 -6 -5 -5 -8 3 -8 9 0 10 -5 4 -17 -5 -10 -8 -33
-6 -50 1 -18 -2 -33 -7 -33 -5 0 -4 -11 1 -26 6 -14 6 -23 2 -20 -5 3 -9 -29
-10 -71 -1 -43 -8 -83 -15 -91 -9 -13 -9 -14 1 -8 15 9 15 1 1 -26 -9 -16 -8
-19 2 -13 8 5 10 4 5 -4 -12 -19 -14 -61 -4 -61 5 0 6 -6 1 -12 -4 -7 -9 -56
-10 -108 -1 -52 -3 -97 -3 -100 -5 -18 -2 -272 4 -277 3 -3 1 -12 -5 -20 -9
-10 -8 -13 2 -13 11 0 11 -2 0 -9 -12 -8 -12 -12 -2 -25 10 -12 10 -16 2 -16
-7 0 -10 -4 -7 -9 3 -4 7 -41 8 -80 1 -40 6 -75 10 -77 4 -3 3 -15 -4 -27 -12
-23 -12 -25 4 -44 7 -9 7 -13 -1 -13 -8 0 -9 -5 -2 -18 5 -10 6 -24 1 -32 -5
-8 -4 -22 1 -32 7 -13 6 -18 -3 -18 -10 0 -10 -2 -1 -8 7 -4 12 -16 12 -27 1
-11 1 -41 1 -67 0 -26 5 -50 10 -53 8 -5 8 -11 0 -20 -7 -9 -7 -15 -1 -19 9
-6 7 -43 -3 -53 -2 -2 2 -16 10 -31 7 -14 10 -29 6 -32 -9 -6 -9 -31 0 -46 4
-5 5 -19 4 -30 -2 -10 2 -22 8 -26 8 -6 6 -11 -4 -18 -8 -5 -10 -10 -4 -10 6
0 12 -21 14 -47 1 -27 3 -56 3 -65 1 -10 5 -18 10 -18 5 0 4 -7 -3 -15 -9 -11
-9 -15 -1 -15 7 0 11 -6 10 -12 -4 -37 2 -69 13 -62 7 5 8 3 2 -7 -13 -21 -14
-39 -2 -39 6 0 5 -6 -2 -15 -10 -12 -10 -15 2 -15 7 0 14 -9 14 -20 0 -11 -4
-20 -9 -20 -5 0 -5 -6 0 -12 6 -7 9 -21 8 -30 -2 -10 0 -18 4 -18 4 0 8 -15 9
-32 2 -41 7 -68 16 -90 4 -9 5 -22 1 -28 -3 -5 -1 -10 5 -10 6 0 9 -4 5 -9 -3
-6 4 -26 15 -46 11 -20 16 -34 10 -30 -5 3 -10 -2 -10 -12 0 -10 -14 -31 -30
-47 -17 -16 -29 -31 -26 -33 3 -3 -5 -14 -17 -24 -12 -10 -18 -18 -13 -19 6 0
-3 -14 -20 -32 -16 -17 -22 -28 -14 -24 9 5 8 2 -2 -7 -10 -8 -18 -19 -18 -26
0 -6 -4 -11 -9 -11 -5 0 -13 -10 -17 -22 -4 -13 -17 -37 -30 -54 -13 -17 -24
-36 -24 -42 0 -7 -4 -12 -8 -12 -7 0 -26 -40 -30 -63 -1 -4 -8 -15 -17 -23 -8
-9 -15 -22 -15 -30 0 -8 -4 -14 -9 -14 -5 0 -12 -10 -16 -22 -15 -47 -37 -88
-46 -88 -5 0 -6 -7 -2 -16 4 -10 -1 -22 -11 -30 -10 -6 -17 -15 -17 -18 1 -3
1 -7 0 -8 0 -2 -2 -12 -4 -23 -2 -11 -8 -21 -14 -23 -5 -2 -7 -10 -4 -18 3 -8
0 -14 -6 -14 -6 0 -10 -3 -10 -7 4 -23 -2 -43 -10 -38 -6 3 -10 -3 -10 -12 1
-29 -6 -52 -18 -64 -6 -6 -9 -18 -6 -25 3 -8 0 -14 -6 -14 -6 0 -8 -6 -5 -14
3 -8 0 -17 -5 -21 -6 -3 -9 -10 -6 -15 3 -5 1 -11 -4 -15 -6 -3 -8 -12 -4 -20
3 -8 0 -15 -7 -15 -7 0 -9 -8 -5 -20 4 -13 2 -20 -6 -20 -7 0 -10 -3 -6 -6 3
-4 0 -21 -7 -38 -7 -17 -12 -41 -11 -53 1 -13 -1 -23 -5 -23 -3 0 -7 -15 -8
-32 -2 -18 -7 -34 -12 -36 -5 -2 -5 -14 1 -29 7 -19 6 -24 -3 -20 -9 3 -14 -9
-16 -42 -5 -109 -7 -121 -16 -121 -4 0 -2 -8 5 -17 10 -11 10 -14 2 -9 -10 5
-13 -5 -14 -41 0 -26 -2 -70 -4 -98 -8 -127 -8 -145 -2 -151 3 -3 2 -17 -3
-30 -6 -15 -6 -26 1 -30 8 -4 7 -9 -2 -15 -10 -6 -11 -9 -1 -9 6 0 12 -5 12
-11 0 -5 -5 -7 -12 -3 -7 5 -8 3 -3 -6 4 -7 9 -36 11 -64 5 -81 11 -132 16
-142 2 -5 4 -24 3 -41 -1 -18 1 -33 4 -33 4 0 7 -15 8 -32 1 -18 4 -44 8 -58
4 -14 7 -35 8 -47 1 -13 4 -23 8 -23 4 0 5 -10 1 -22 -4 -16 -2 -19 9 -13 12
7 12 6 1 -7 -8 -10 -9 -17 -3 -20 6 -1 12 -19 13 -38 2 -19 7 -38 12 -41 5 -4
9 -18 9 -33 0 -14 3 -26 8 -26 5 0 9 -11 9 -24 0 -13 7 -39 15 -59 8 -19 11
-38 7 -42 -4 -5 -1 -5 6 -1 8 5 12 -2 12 -23 0 -17 4 -31 8 -31 5 0 9 -7 10
-15 1 -8 3 -22 4 -30 1 -8 5 -15 10 -15 4 0 8 -9 8 -19 0 -11 5 -23 10 -26 6
-4 8 -10 5 -15 -3 -5 3 -18 14 -29 11 -11 17 -21 15 -24 -8 -7 18 -67 27 -61
5 3 6 -3 2 -12 -5 -13 -3 -15 7 -9 8 5 11 4 7 -2 -7 -11 20 -74 36 -84 5 -4 6
-12 3 -18 -4 -6 -2 -11 3 -11 6 0 11 -7 11 -16 0 -8 4 -13 8 -10 4 2 8 -3 9
-12 1 -16 61 -123 82 -148 5 -7 7 -15 4 -18 -4 -3 -1 -6 5 -6 7 0 12 -7 12
-16 0 -8 5 -12 10 -9 6 3 10 -3 10 -14 0 -12 5 -21 10 -21 6 0 10 -9 10 -21 0
-11 5 -17 10 -14 6 3 10 -1 10 -9 0 -9 5 -16 10 -16 6 0 10 -10 10 -22 0 -19
2 -20 11 -8 9 12 10 11 6 -8 -3 -12 -2 -20 3 -17 8 5 25 -24 21 -38 -1 -5 2
-6 6 -4 5 2 17 -5 28 -16 11 -11 13 -16 5 -11 -15 8 17 -38 58 -82 12 -14 22
-29 22 -35 0 -6 5 -7 10 -4 9 6 12 -1 9 -22 0 -3 6 -10 15 -15 9 -5 14 -14 10
-19 -3 -5 0 -8 8 -7 7 2 12 -3 11 -10 -2 -6 4 -12 12 -12 9 0 20 -11 25 -25 5
-14 14 -25 20 -25 6 0 8 -4 5 -10 -3 -5 1 -10 9 -10 9 0 16 -4 16 -10 0 -5 13
-23 30 -40 16 -17 30 -35 30 -40 0 -6 7 -10 16 -10 8 0 12 -4 9 -10 -3 -5 1
-10 9 -10 9 0 16 -5 16 -11 0 -6 19 -29 42 -52 24 -22 42 -44 41 -49 -2 -4 2
-8 8 -8 6 0 29 -18 50 -40 22 -22 44 -40 51 -40 6 0 9 -3 5 -6 -8 -8 18 -34
33 -34 6 0 8 -5 5 -10 -3 -5 -1 -10 5 -10 6 0 25 -15 44 -32 18 -18 53 -51 79
-72 25 -22 43 -44 40 -49 -3 -6 -2 -7 4 -4 10 6 42 -16 101 -70 19 -18 39 -30
45 -26 6 3 7 1 3 -5 -4 -7 -4 -12 1 -12 9 0 53 -34 90 -67 13 -13 26 -23 29
-23 3 0 12 -7 21 -15 8 -8 18 -13 23 -10 5 3 11 -4 15 -15 3 -11 13 -20 21
-20 8 0 23 -8 33 -18 36 -32 50 -42 60 -42 5 0 11 -6 14 -14 3 -7 26 -23 51
-36 25 -12 46 -26 46 -31 0 -6 4 -8 8 -5 5 3 15 -4 22 -15 8 -10 20 -19 28
-19 7 0 20 -6 27 -12 34 -31 43 -36 49 -31 3 4 6 1 6 -6 0 -7 4 -10 9 -7 5 3
12 -1 15 -10 3 -8 10 -13 15 -10 5 3 12 -1 15 -9 3 -8 11 -14 18 -13 7 2 12
-3 11 -9 -2 -7 6 -13 17 -13 11 0 28 -8 38 -18 10 -10 24 -16 30 -14 7 2 12 0
12 -5 0 -5 17 -17 38 -28 20 -11 40 -24 44 -30 5 -7 8 -7 8 0 0 6 5 3 10 -5 5
-8 13 -16 17 -16 20 -3 73 -29 73 -36 0 -4 7 -8 15 -8 8 0 15 -5 15 -12 0 -6
3 -8 7 -5 3 4 12 -1 20 -11 8 -9 11 -11 8 -4 -6 11 -3 11 14 0 12 -7 21 -16
21 -19 0 -4 7 -10 16 -13 10 -4 13 -2 8 7 -4 6 1 4 12 -5 11 -10 36 -24 57
-33 20 -8 37 -20 37 -25 0 -5 7 -7 15 -4 8 4 15 1 15 -5 0 -6 7 -11 15 -11 8
0 15 -4 15 -10 0 -5 3 -9 7 -9 23 4 43 -2 38 -11 -3 -5 3 -10 14 -10 11 0 23
-5 26 -11 4 -6 13 -8 21 -5 8 3 14 2 14 -2 0 -9 54 -38 88 -47 12 -4 19 -11
16 -17 -4 -6 -2 -8 4 -4 6 3 27 -3 47 -14 19 -11 42 -20 49 -20 8 0 16 -4 18
-9 2 -5 12 -11 23 -13 11 -1 22 -5 25 -8 9 -9 84 -42 104 -46 11 -2 23 -9 28
-16 4 -7 8 -9 8 -4 0 4 12 1 26 -9 14 -9 28 -14 31 -11 3 3 12 -2 20 -12 8 -9
11 -10 7 -3 -4 9 7 4 26 -9 18 -13 30 -18 26 -12 -4 7 7 4 25 -7 18 -11 36
-18 41 -15 4 3 8 0 8 -6 0 -7 7 -10 15 -6 8 3 15 1 15 -4 0 -6 8 -10 18 -10
10 0 22 -4 28 -8 5 -5 51 -24 101 -42 51 -18 91 -35 89 -39 -2 -3 7 -7 20 -8
46 -4 54 -6 54 -15 0 -5 4 -7 8 -4 5 3 20 -1 35 -9 15 -7 37 -15 49 -17 13 -2
29 -8 36 -15 7 -7 19 -10 27 -7 8 4 15 1 15 -6 0 -7 7 -10 15 -6 8 3 15 1 15
-5 0 -6 4 -8 9 -4 5 3 12 1 16 -4 3 -6 13 -7 22 -4 10 4 14 2 10 -4 -5 -7 0
-9 13 -6 12 3 20 0 20 -8 0 -7 3 -10 6 -6 4 3 21 0 39 -8 19 -7 36 -11 39 -7
3 3 6 0 6 -6 0 -6 9 -9 20 -7 11 2 20 0 20 -6 0 -5 13 -9 28 -9 15 0 32 -4 38
-9 5 -6 21 -12 36 -15 14 -2 35 -9 47 -15 11 -6 24 -11 28 -10 4 1 11 0 16 -1
4 -1 12 -4 17 -5 6 -1 12 -4 15 -5 3 -1 10 -4 15 -5 6 -1 11 -3 13 -5 1 -1 15
-4 32 -6 16 -3 32 -8 35 -12 3 -4 16 -8 30 -10 14 -1 31 -3 38 -4 6 -1 12 -4
12 -8 0 -5 18 -9 58 -12 6 -1 12 -5 12 -10 0 -5 5 -6 10 -3 6 4 24 0 40 -9 19
-9 28 -10 23 -3 -4 7 0 6 10 -2 9 -7 17 -11 17 -8 0 4 19 0 41 -8 23 -8 52
-15 65 -15 13 0 24 -4 24 -9 0 -6 9 -8 20 -6 11 2 20 0 20 -5 0 -5 7 -7 15 -4
8 4 21 2 28 -4 6 -5 19 -10 27 -10 24 -1 44 -7 59 -16 11 -7 12 -6 6 5 -8 12
-6 12 8 1 9 -8 21 -11 27 -7 5 3 10 2 10 -3 0 -5 6 -9 13 -10 45 -3 93 -14
106 -25 12 -10 13 -9 6 3 -8 13 -6 13 8 1 9 -7 23 -11 32 -8 8 4 17 2 21 -4 3
-6 12 -8 20 -5 8 3 14 2 14 -2 0 -7 8 -9 65 -13 14 -1 25 -6 25 -11 0 -6 8 -4
17 3 10 8 14 9 10 2 -5 -7 -1 -12 10 -12 10 1 32 -2 48 -6 65 -13 81 -16 100
-19 11 -2 20 -4 20 -5 0 -1 16 -4 35 -7 19 -2 46 -7 60 -10 14 -4 39 -8 55
-10 47 -6 90 -12 90 -14 0 -3 40 -9 73 -12 18 -1 35 -5 37 -8 2 -4 20 -6 40
-5 19 0 35 -2 35 -6 0 -3 16 -5 35 -4 19 1 35 -1 35 -5 0 -5 41 -11 103 -13 9
-1 17 -4 17 -7 0 -3 17 -6 38 -6 20 -1 55 -5 77 -8 87 -15 95 -15 95 -3 0 8 3
7 9 -2 5 -8 23 -15 40 -16 17 -2 28 1 25 6 -3 5 2 6 10 3 9 -3 16 -9 16 -13 0
-4 19 -7 42 -8 55 0 117 -9 125 -17 3 -3 12 -1 20 5 8 8 13 8 13 1 0 -6 8 -9
18 -7 9 1 23 -2 30 -8 8 -6 12 -6 12 2 0 7 8 8 23 2 12 -4 43 -7 70 -6 26 1
47 -1 47 -4 0 -4 32 -6 71 -6 52 0 73 -4 80 -15 4 -8 9 -10 9 -5 0 15 40 16
40 2 0 -7 4 -6 10 3 5 8 10 11 10 5 0 -6 26 -10 58 -10 31 0 69 -3 85 -7 18
-4 27 -3 27 5 0 8 3 8 8 2 4 -5 39 -10 77 -10 39 0 77 -3 86 -7 8 -3 21 -3 29
2 8 5 21 5 30 0 11 -6 22 -5 30 3 7 7 10 7 7 1 -4 -8 27 -12 101 -13 187 -4
207 -6 221 -15 10 -6 12 -6 7 2 -8 13 20 12 41 -1 6 -4 13 -1 16 5 3 10 7 10
20 -1 10 -7 17 -9 17 -4 0 11 36 11 46 0 4 -4 13 -2 21 4 7 6 13 7 13 2 0 -5
9 -9 20 -9 11 0 20 4 20 9 0 5 6 5 13 -1 8 -7 18 -7 27 -2 8 5 21 5 31 -1 12
-6 19 -5 22 4 4 9 6 9 6 0 1 -9 8 -10 24 -4 14 5 30 5 40 0 12 -7 17 -6 17 2
0 8 4 9 13 0 10 -8 17 -7 25 1 7 7 12 8 12 2 0 -5 9 -10 20 -10 11 0 20 4 20
9 0 5 6 5 13 -2 10 -8 17 -7 25 1 9 9 12 9 12 -1 0 -10 3 -11 13 -2 10 8 17 7
25 -1 9 -9 12 -9 12 1 0 10 3 11 14 2 11 -9 15 -9 18 1 4 10 8 11 20 1 8 -7
18 -10 22 -6 4 4 18 9 32 11 19 2 24 -1 18 -10 -6 -10 -5 -11 7 -1 8 6 32 12
54 12 208 2 272 5 283 14 8 6 12 6 12 -2 0 -8 6 -9 18 -3 9 4 50 8 90 7 43 0
72 4 72 10 0 5 5 3 10 -5 9 -13 10 -13 10 0 0 13 1 13 10 0 5 -8 10 -10 10 -5
0 6 27 10 63 10 34 -1 70 3 80 7 9 5 17 5 17 0 0 -4 9 -8 19 -8 13 0 17 4 11
11 -6 7 19 10 76 9 46 -1 84 1 84 5 0 3 29 6 65 6 37 0 65 4 65 10 0 6 5 3 10
-5 5 -8 10 -10 10 -4 0 7 13 10 30 9 17 -1 33 2 36 7 3 5 12 4 20 -3 8 -6 14
-7 14 -2 0 5 15 10 33 11 69 4 102 8 112 13 6 3 27 5 48 4 20 0 37 2 37 5 0 3
15 6 33 6 17 1 55 5 82 8 28 4 61 8 75 9 14 1 28 6 31 10 4 5 17 4 29 -3 15
-8 20 -8 16 -1 -5 7 4 11 24 11 22 0 29 4 24 13 -6 9 -4 9 7 1 8 -6 23 -9 34
-7 11 2 28 4 38 4 9 0 15 3 13 7 -2 4 17 7 42 6 26 -1 52 1 57 6 6 4 20 6 33
5 12 -1 22 2 22 7 0 5 5 6 11 2 6 -3 15 0 20 7 7 12 9 12 9 0 0 -11 3 -11 15
-1 8 6 18 9 24 6 5 -3 12 0 14 6 4 10 6 10 6 0 1 -9 6 -10 21 -2 10 6 23 10
27 9 4 -1 10 0 13 1 3 2 21 4 40 5 22 1 34 7 32 14 -1 8 2 9 10 5 20 -13 41
-11 62 6 11 9 16 10 12 3 -8 -15 10 -18 19 -4 3 6 14 8 24 6 11 -2 21 2 24 8
3 7 22 11 46 11 25 -1 41 3 41 10 0 6 5 4 10 -4 5 -8 10 -10 10 -5 0 10 14 14
58 17 6 1 12 4 12 7 0 3 10 7 23 8 56 4 94 10 105 17 7 4 17 4 22 1 6 -3 10
-1 10 5 0 7 7 10 15 6 8 -3 15 -1 15 3 0 5 8 8 18 6 9 -1 28 4 41 12 13 8 20
10 17 4 -8 -12 7 -15 18 -4 4 5 11 8 14 9 4 0 25 4 47 9 56 13 54 12 60 15 3
1 9 3 14 4 5 0 13 4 17 8 4 4 14 2 22 -5 10 -7 13 -8 9 -1 -4 8 7 15 31 20 20
4 40 7 45 6 4 -1 7 4 7 11 0 8 4 7 10 -3 5 -8 10 -10 10 -4 0 6 6 11 13 12 43
5 77 16 77 23 0 5 11 7 25 5 14 -3 25 -1 25 4 0 4 8 7 17 6 9 -2 29 4 45 12
16 7 36 11 44 8 8 -3 13 -2 10 3 -5 8 31 19 77 24 9 1 17 5 17 10 0 5 7 7 15
3 8 -3 15 0 15 5 0 6 9 9 20 6 11 -3 20 0 20 6 0 6 3 8 6 5 3 -4 21 0 40 8 19
8 34 12 34 9 0 -3 12 3 27 12 15 10 27 16 28 14 0 -2 18 2 40 8 22 6 45 11 50
11 6 1 19 7 30 14 11 7 28 12 38 10 9 -1 17 2 17 7 0 5 9 9 20 9 11 0 20 4 20
10 0 5 7 6 17 3 12 -5 14 -3 8 7 -5 8 -4 11 3 6 6 -3 33 2 61 13 27 10 52 16
55 13 4 -3 6 0 6 6 0 6 7 9 15 6 8 -4 15 -2 15 4 0 9 88 39 103 34 4 -1 10 4
13 12 3 8 12 12 20 9 8 -3 14 0 14 6 0 6 7 8 15 5 8 -4 15 -1 15 5 0 6 11 11
24 11 14 0 28 5 31 10 4 6 11 8 16 5 5 -4 9 -1 9 6 0 6 8 9 20 6 11 -3 18 -2
15 3 -5 7 42 25 58 22 4 -1 7 3 7 9 0 6 7 9 15 5 8 -3 15 -2 15 3 0 5 21 15
46 22 25 8 54 22 65 32 13 12 19 14 19 5 0 -9 3 -9 8 -2 8 12 73 40 85 36 4
-1 7 3 7 8 0 6 7 10 15 10 8 0 15 5 15 12 0 6 3 8 6 5 4 -3 16 -1 28 5 11 7
24 11 29 10 4 -1 7 3 7 9 0 5 4 8 9 4 5 -3 15 0 23 7 7 7 20 14 28 16 8 2 18
9 22 15 4 7 8 9 8 4 0 -4 15 0 33 10 17 9 35 16 40 15 4 -1 7 3 7 10 0 6 3 9
6 5 4 -3 13 1 21 9 8 8 19 12 24 8 5 -3 12 2 15 10 3 9 10 14 14 11 5 -3 11
-1 15 5 4 6 11 8 16 5 5 -4 9 -1 9 5 0 6 5 8 10 5 6 -3 13 1 16 9 3 9 10 14
14 11 4 -3 18 3 31 13 13 10 50 30 81 45 31 15 60 32 63 37 3 6 17 10 31 10
14 0 23 3 21 8 -6 8 13 27 28 27 17 1 65 28 65 37 0 4 9 8 19 8 11 0 27 10 36
23 8 12 16 20 18 18 4 -7 47 10 47 20 0 5 7 9 15 9 8 0 15 5 15 12 0 6 3 9 6
5 4 -3 13 1 21 9 8 8 20 11 26 7 7 -3 9 -3 5 1 -9 10 14 35 27 30 5 -2 25 10
44 26 18 17 40 30 48 30 7 0 16 7 19 15 4 8 13 15 20 15 8 0 17 7 20 15 4 8
10 12 15 9 5 -3 9 0 9 7 0 7 3 10 6 6 6 -6 17 2 59 41 14 13 25 19 25 15 0 -4
7 1 15 11 8 11 15 16 15 10 0 -5 6 -2 13 7 7 8 20 18 30 22 11 4 15 12 11 18
-4 7 -3 9 3 6 6 -4 16 0 23 8 7 8 17 12 23 8 6 -4 8 0 4 10 -3 9 -3 16 1 15
15 -4 52 14 47 23 -4 5 3 9 15 9 12 0 19 3 17 8 -3 4 1 13 9 20 8 7 14 10 14
7 0 -3 10 3 22 15 12 11 26 20 30 20 5 0 6 4 3 10 -3 5 -1 10 5 10 7 0 19 8
28 18 10 10 13 11 7 2 -5 -8 13 6 40 32 27 27 52 48 57 48 4 0 8 7 8 16 0 8 4
13 9 10 11 -7 71 50 63 59 -3 3 1 5 8 5 7 0 26 14 42 30 15 17 33 30 39 30 5
0 7 5 4 10 -3 6 1 10 10 10 9 0 14 4 11 9 -3 4 6 13 20 20 17 7 24 17 20 26
-3 8 -2 14 2 14 19 -3 33 2 27 10 -3 5 4 12 15 16 11 4 18 11 15 16 -4 5 1 9
10 9 9 0 13 5 10 10 -3 6 -1 10 5 10 6 0 8 5 5 10 -4 6 -3 9 2 8 5 -2 25 14
46 34 21 21 35 38 32 38 -3 0 0 6 7 14 7 8 16 12 20 10 4 -2 9 5 13 16 3 11
11 20 17 20 6 0 9 3 6 6 -3 3 11 22 33 43 21 21 35 41 32 45 -4 3 2 6 11 6 10
0 16 5 14 12 -2 6 13 29 34 51 21 22 36 43 33 45 -3 3 4 12 15 19 11 8 18 18
15 23 -3 5 4 11 15 15 11 4 18 10 16 14 -3 4 9 24 25 44 17 20 27 37 23 37 -4
0 5 12 20 27 15 14 24 33 22 40 -3 8 -2 12 3 8 5 -3 15 8 23 25 7 16 20 30 28
31 10 0 11 2 3 6 -10 3 -9 8 2 20 8 8 12 19 9 25 -4 7 -2 8 4 4 7 -4 14 3 18
19 3 14 10 25 14 25 4 0 13 14 19 30 5 17 17 38 26 47 9 8 14 22 11 29 -3 8
-1 14 4 14 6 0 10 7 10 15 0 8 5 15 11 15 5 0 8 4 4 9 -3 5 2 17 11 25 8 9 13
16 9 16 -3 0 1 10 10 23 8 13 12 27 8 30 -3 4 -1 7 5 7 6 0 14 10 18 23 4 12
6 22 4 22 -2 0 3 11 10 25 8 14 13 28 12 33 -1 4 3 7 8 7 5 0 9 3 8 8 -1 4 6
24 15 46 9 21 14 42 11 47 -3 5 0 9 7 9 6 0 9 8 6 20 -3 11 -2 18 3 15 7 -4
16 16 25 55 2 8 6 24 9 35 2 11 5 26 5 33 1 7 6 10 13 6 6 -4 9 -3 5 2 -3 5 1
36 9 69 8 33 17 71 20 85 3 14 7 33 10 42 10 35 16 64 17 91 0 15 4 27 8 27 4
0 6 11 3 25 -3 16 0 25 8 25 9 0 8 3 -2 10 -8 5 -10 10 -4 10 7 0 11 19 9 50
-1 28 1 50 4 50 8 0 13 93 14 240 0 201 -5 290 -16 290 -5 0 -4 7 3 15 9 11 9
15 1 15 -7 0 -9 5 -6 10 3 6 2 10 -4 10 -6 0 -8 7 -5 15 3 8 2 20 -2 27 -10
15 -10 19 -12 71 -1 23 -6 36 -12 32 -14 -9 -13 8 2 23 8 8 8 12 1 12 -6 0
-14 7 -17 16 -4 10 -2 13 7 9 6 -4 4 0 -5 7 -15 13 -15 15 0 26 9 7 12 10 5 7
-7 -3 -14 10 -18 35 -4 22 -12 40 -18 40 -7 0 -5 5 3 10 8 5 10 10 3 10 -6 0
-10 8 -8 18 1 9 -2 26 -8 37 -6 11 -11 30 -11 42 -1 12 -5 25 -10 30 -5 5 -6
2 -1 -6 6 -10 4 -12 -4 -7 -9 6 -9 11 0 22 9 11 9 14 0 14 -7 0 -10 4 -6 9 3
5 0 13 -6 16 -5 4 -8 13 -5 21 3 8 1 14 -5 14 -6 0 -9 7 -5 15 3 10 -1 15 -12
16 -14 0 -14 2 3 9 18 8 19 9 1 9 -12 1 -16 6 -13 16 4 8 2 17 -4 21 -6 3 -8
12 -5 20 3 8 2 14 -2 14 -4 0 -13 9 -20 21 -11 17 -11 20 0 14 7 -3 5 0 -5 8
-14 11 -15 16 -5 20 9 4 8 6 -4 6 -11 1 -15 7 -10 23 3 14 1 19 -6 14 -8 -5
-10 -2 -6 8 3 9 1 16 -5 16 -6 0 -10 6 -9 13 2 6 -2 11 -8 10 -7 -1 -10 6 -7
16 2 10 -2 24 -9 32 -15 14 -18 21 -18 40 0 5 -6 7 -12 3 -10 -6 -9 -3 0 9 12
13 10 18 -7 29 -12 7 -21 20 -21 30 0 9 -5 20 -11 23 -6 4 -8 14 -5 22 5 11 2
13 -11 9 -10 -4 -14 -4 -10 0 4 4 2 13 -5 21 -6 7 -8 16 -5 20 4 3 -5 17 -19
30 -14 12 -21 23 -17 23 4 0 1 5 -7 10 -11 7 -11 10 -2 10 10 0 10 3 0 14 -7
8 -17 11 -23 8 -5 -3 -7 -2 -3 3 4 4 3 14 -3 22 -6 7 -8 13 -4 13 5 0 -2 8
-13 19 -12 10 -19 21 -15 25 3 3 1 6 -6 6 -7 0 -9 4 -6 10 3 5 1 10 -4 10 -6
0 -11 7 -11 15 0 7 -8 19 -17 24 -10 6 -14 11 -9 11 5 0 -1 8 -12 19 -12 10
-19 21 -15 25 3 3 1 6 -6 6 -7 0 -10 3 -8 8 7 10 -19 32 -29 24 -4 -4 -5 1 -1
10 3 9 0 19 -9 22 -8 3 -14 13 -14 21 0 9 -4 13 -10 10 -5 -3 -10 3 -10 15 0
12 -4 18 -10 15 -5 -3 -10 -1 -10 5 0 6 -5 8 -12 4 -9 -5 -9 -2 1 9 12 15 11
17 -5 17 -16 0 -17 2 -4 10 10 6 11 10 3 10 -7 0 -13 5 -13 11 0 6 6 7 13 2 6
-4 4 6 -7 22 -10 17 -13 24 -5 17 17 -16 26 -15 26 3 0 8 -5 11 -11 8 -6 -4
-5 1 2 10 8 9 11 21 7 27 -3 5 -1 10 5 10 6 0 8 5 5 10 -4 6 -1 18 7 27 11 14
11 16 -2 8 -13 -8 -13 -6 -1 8 7 9 11 22 8 29 -2 7 0 24 5 38 10 25 20 92 20
142 0 15 3 26 7 24 3 -2 7 10 7 27 3 73 9 107 17 107 5 0 4 7 -3 15 -8 10 -9
15 -1 15 6 0 9 13 7 30 -2 17 1 30 7 30 5 0 3 8 -4 17 -8 10 -9 14 -2 10 9 -6
11 4 10 33 -2 22 0 40 4 40 4 0 6 23 5 50 -1 39 2 49 13 45 11 -4 11 -2 2 9
-13 15 -11 37 4 48 6 5 4 8 -5 8 -13 0 -13 1 0 10 12 8 12 10 1 10 -10 0 -11
3 -3 13 12 14 11 35 -2 56 -6 10 -5 12 2 7 8 -5 11 1 11 16 -1 13 2 32 6 42 7
15 5 17 -6 11 -11 -7 -12 -6 -2 7 7 8 11 29 9 46 -2 17 2 33 8 36 7 3 6 5 -2
5 -7 1 -10 6 -7 11 4 6 9 57 11 113 3 56 7 108 9 115 2 6 -1 12 -8 12 -8 0 -8
3 -2 8 6 4 10 35 9 70 0 34 3 65 8 68 4 3 4 14 -2 24 -12 23 -13 33 -2 26 7
-4 8 33 2 42 -7 7 -5 29 2 39 5 6 4 14 -3 18 -8 6 -7 10 2 16 12 7 12 9 0 9
-11 0 -11 3 -1 15 10 12 10 15 0 15 -9 0 -9 4 -2 13 7 8 7 18 2 27 -6 9 -5 17
2 21 9 6 8 12 -1 23 -11 13 -11 16 0 16 9 0 10 3 3 8 -12 8 -11 52 1 72 5 9 4
11 -3 6 -9 -5 -10 4 -7 34 4 27 2 39 -5 35 -7 -4 -7 2 -1 18 5 13 6 30 1 37
-5 7 -4 23 0 36 5 12 7 24 4 27 -3 3 -7 45 -9 93 -3 49 -6 104 -8 122 -2 18 0
35 5 38 4 3 1 16 -8 30 -12 17 -13 24 -4 24 8 0 9 4 4 13 -5 6 -9 29 -9 50 1
20 -3 37 -7 37 -4 0 -8 5 -8 11 0 5 6 7 13 3 9 -6 9 -4 2 7 -6 8 -10 34 -10
59 0 28 -6 50 -15 58 -8 8 -9 11 -2 7 14 -7 17 30 3 39 -4 3 -6 17 -4 30 3 14
-2 39 -10 56 -9 16 -11 28 -6 25 5 -4 9 1 9 9 0 8 -5 18 -10 21 -8 5 -8 11 0
20 8 10 8 15 0 20 -7 4 -10 18 -7 31 2 13 0 24 -6 24 -5 0 -3 8 4 17 12 14 12
16 0 8 -11 -6 -13 -2 -9 19 3 14 2 29 -3 31 -4 3 -6 14 -4 25 2 11 -1 20 -6
20 -6 0 -7 5 -4 10 3 6 3 16 -2 22 -11 18 -10 52 2 60 6 5 3 8 -6 8 -11 0 -15
9 -13 30 1 17 -2 30 -6 30 -5 0 -7 8 -5 18 1 9 -2 23 -8 30 -6 8 -6 12 2 12 8
0 9 6 3 18 -5 9 -7 23 -5 30 3 6 -1 12 -7 12 -7 0 -10 6 -7 14 3 8 3 17 0 20
-4 3 -8 16 -9 29 -4 37 -9 54 -22 70 -9 11 -10 17 -2 22 8 5 8 11 -1 21 -6 8
-9 14 -6 14 3 0 1 15 -4 33 -6 17 -11 37 -12 42 -2 6 -6 16 -10 23 -5 7 -3 12
4 12 7 0 5 8 -7 22 -12 13 -13 18 -4 13 9 -5 8 0 -4 13 -14 17 -16 22 -5 22
12 0 12 2 0 9 -7 5 -10 14 -7 20 4 6 3 11 -1 11 -5 0 -10 9 -11 20 -1 11 -3
29 -4 40 -1 11 -6 20 -11 20 -4 0 -6 4 -2 9 3 5 1 12 -4 16 -5 3 -8 14 -6 25
2 11 0 20 -6 20 -5 0 -9 11 -9 25 0 14 -5 25 -10 25 -6 0 -9 3 -8 8 5 17 -14
82 -23 82 -6 0 -7 5 -4 10 4 6 1 18 -7 27 -11 14 -11 16 1 9 9 -6 8 -1 -3 16
-9 14 -14 33 -10 42 4 11 2 16 -7 14 -8 -2 -13 3 -11 10 1 6 -4 12 -10 12 -9
0 -8 4 2 10 12 8 12 10 -5 10 -17 0 -17 2 -5 10 8 5 10 10 4 10 -7 0 -11 11
-10 24 0 13 3 24 6 24 14 -1 50 15 50 22 0 9 40 25 53 22 4 -1 6 2 5 6 -2 5
13 22 32 38 19 16 31 22 26 14 -4 -8 0 -6 8 4 9 11 16 16 16 12 0 -4 11 4 24
18 13 15 28 26 35 26 6 0 11 5 11 12 0 6 3 8 7 5 3 -4 16 4 27 16 12 13 28 21
35 19 8 -3 11 0 7 6 -3 6 3 13 14 17 11 4 18 11 15 16 -4 5 1 9 10 9 8 0 18 7
21 15 4 8 12 15 20 15 8 0 14 5 14 10 0 6 4 10 9 10 4 0 32 21 61 48 28 26 53
45 54 42 1 -3 9 2 18 10 9 8 14 18 11 23 -2 4 0 7 6 7 6 0 24 14 41 30 17 17
35 30 41 30 6 0 7 5 4 10 -3 6 -2 10 4 10 6 0 56 45 112 100 56 55 106 100
111 100 5 0 6 5 3 11 -4 6 2 13 12 15 11 3 27 19 37 35 10 16 22 27 27 24 5
-4 9 -1 9 5 0 6 22 33 49 60 27 28 48 50 45 50 -2 0 16 20 42 45 25 25 42 45
39 45 -4 0 6 13 22 29 15 15 46 50 68 77 22 26 48 56 58 66 9 10 17 22 17 27
0 4 11 16 24 27 14 10 23 21 20 26 -3 4 -2 8 3 8 4 0 22 20 38 45 17 24 33 45
38 45 4 0 7 5 7 11 0 6 11 23 25 37 14 15 25 30 26 34 0 7 26 41 61 78 9 10
14 21 11 24 -3 3 2 8 11 12 9 3 13 10 10 15 -3 5 2 12 10 15 9 3 13 10 10 15
-3 5 -2 9 3 9 4 0 14 14 21 30 8 17 18 28 23 24 5 -3 9 2 9 10 0 9 5 16 11 16
5 0 7 5 4 10 -3 6 -1 10 5 10 6 0 8 5 5 10 -3 6 -1 10 4 10 6 0 11 5 11 11 0
6 7 17 15 26 8 8 12 19 9 25 -4 6 -3 8 3 5 5 -3 22 19 37 49 16 31 34 58 42
61 8 3 12 9 9 13 -3 4 4 19 15 33 11 14 20 30 20 36 0 6 5 11 11 11 5 0 8 4 4
9 -3 6 1 13 9 18 8 4 15 10 15 13 0 13 16 46 25 52 11 7 12 11 15 44 0 8 6 12
11 9 9 -6 14 8 11 28 0 4 4 7 10 7 5 0 8 4 5 9 -8 12 19 33 29 23 5 -4 5 -2 2
4 -8 15 12 74 25 74 5 0 6 4 3 10 -3 5 3 17 14 26 10 9 17 23 14 30 -3 8 0 14
7 14 6 0 9 4 5 9 -3 5 -1 12 5 16 6 4 7 11 4 17 -5 7 -2 9 8 6 11 -5 14 0 12
18 -1 13 2 24 7 24 6 0 8 4 5 9 -3 5 1 11 9 15 8 3 15 11 15 18 0 9 -3 8 -10
-2 -7 -10 -10 -11 -10 -2 0 7 7 15 15 18 8 4 12 10 9 15 -3 5 0 9 7 9 7 0 10
3 6 6 -3 4 3 24 13 45 11 21 20 47 20 59 0 11 5 20 10 20 6 0 10 7 10 15 0 8
4 15 10 15 5 0 7 7 4 15 -4 8 -1 15 6 15 6 0 8 5 5 10 -3 6 -2 10 4 10 6 0 8
7 5 15 -4 10 0 15 12 16 18 0 17 1 -1 9 -16 7 -17 9 -3 9 11 1 16 8 13 21 -2
11 1 20 6 20 6 0 7 5 4 10 -3 6 0 10 7 10 9 0 9 3 -2 10 -8 5 -10 10 -4 10 13
0 23 21 30 60 3 14 11 34 17 45 7 11 12 30 11 42 -1 12 2 20 7 18 4 -3 11 15
15 40 3 25 13 53 21 60 11 11 11 15 2 15 -10 0 -10 3 -1 12 7 7 12 22 12 34 0
13 4 25 10 29 5 3 6 13 3 22 -4 10 -2 14 4 10 7 -4 10 0 8 10 -1 10 3 24 9 32
9 12 8 13 -4 6 -13 -8 -13 -7 -1 8 7 9 10 17 5 17 -4 0 -3 5 3 11 6 6 9 18 6
25 -3 8 -1 14 4 14 5 0 8 14 7 31 -2 23 1 29 12 25 10 -4 12 -2 7 7 -11 18
-12 36 -2 43 5 3 9 10 9 15 0 6 -6 7 -12 3 -10 -6 -10 -5 -1 7 7 9 13 30 15
47 1 18 7 32 12 32 5 0 6 3 3 7 -4 3 -1 13 6 21 8 11 9 14 0 9 -12 -7 -13 27
-2 48 3 6 5 17 4 25 -1 8 2 25 7 38 4 13 4 22 -3 22 -6 0 -6 8 2 21 6 12 11
57 11 100 0 43 4 82 9 85 6 3 6 10 1 17 -11 15 -10 77 2 96 6 9 5 12 -1 8 -5
-3 -10 25 -12 71 -4 115 -4 122 -13 122 -5 0 -4 9 2 20 6 11 7 20 2 20 -8 0
-11 22 -15 97 -1 12 -5 19 -9 17 -4 -3 -8 8 -8 24 0 16 -7 48 -15 71 -8 23
-14 45 -13 49 1 4 -3 16 -9 27 -6 11 -11 22 -11 25 1 11 -14 57 -32 95 -10 22
-24 55 -32 73 -7 17 -17 32 -22 32 -4 0 -6 6 -3 13 3 8 -3 20 -13 27 -11 8
-17 17 -14 22 3 4 0 8 -7 8 -7 0 -10 3 -6 6 3 3 -3 15 -13 27 -11 11 -17 23
-15 27 2 3 -5 13 -16 20 -10 8 -19 18 -19 23 0 5 -13 21 -30 37 -16 15 -27 30
-24 33 3 2 -9 15 -26 27 -16 12 -27 26 -24 32 4 6 3 8 -3 5 -5 -3 -16 2 -25
11 -20 22 -57 52 -64 52 -12 0 -33 28 -26 35 4 5 2 5 -5 2 -6 -4 -18 0 -26 8
-9 8 -20 15 -26 15 -6 0 -11 4 -11 8 0 5 -16 14 -35 22 -19 8 -35 17 -35 22 0
4 -9 8 -20 8 -11 0 -20 5 -20 11 0 5 -4 7 -10 4 -5 -3 -10 -1 -10 6 0 7 -3 10
-6 7 -3 -4 -20 0 -39 7 -18 8 -36 11 -40 7 -5 -4 -5 -1 -1 6 7 11 -12 18 -38
13 -5 -1 -12 3 -16 9 -7 11 -52 22 -102 24 -14 0 -24 5 -20 10 3 5 -4 7 -16 4
-12 -3 -23 -1 -24 4 -3 7 -12 7 -27 -2 -15 -7 -21 -8 -17 -1 7 11 -9 14 -67
13 -15 0 -25 3 -22 8 6 9 -33 5 -43 -4 -2 -3 -13 -1 -23 5 -13 7 -19 6 -19 -1
0 -7 -6 -8 -19 0 -14 7 -21 6 -24 -3 -4 -9 -6 -8 -6 2 -1 11 -4 11 -16 1 -12
-10 -15 -10 -15 0 0 10 -3 10 -15 0 -12 -10 -15 -10 -15 1 0 9 -3 10 -8 4 -4
-6 -23 -11 -42 -12 -101 -7 -127 -10 -138 -17 -7 -4 -16 -4 -22 -1 -5 3 -10 1
-10 -6 0 -8 -4 -8 -15 1 -9 8 -15 8 -15 2 0 -6 -8 -11 -17 -10 -10 0 -33 -5
-50 -10 -18 -6 -33 -8 -33 -4 0 4 -5 0 -10 -8 -7 -10 -10 -11 -10 -2 0 10 -6
10 -27 -1 -16 -8 -36 -13 -45 -12 -10 2 -18 -1 -18 -7 0 -6 -6 -8 -14 -5 -8 3
-17 -2 -21 -11 -5 -14 -7 -14 -15 -2 -8 12 -10 12 -10 1 0 -7 -6 -11 -15 -7
-8 3 -15 1 -15 -5 0 -6 -9 -8 -22 -4 -15 6 -20 4 -16 -6 4 -9 -2 -15 -16 -15
-35 -3 -53 -9 -72 -24 -13 -11 -16 -12 -10 -1 6 9 0 8 -17 -4 -15 -9 -31 -14
-37 -10 -5 3 -10 2 -10 -4 0 -10 -38 -27 -52 -23 -5 1 -8 -2 -8 -6 0 -5 -18
-15 -40 -22 -22 -7 -40 -17 -40 -22 0 -5 -4 -7 -9 -3 -5 3 -12 1 -16 -5 -3 -5
-15 -10 -26 -10 -10 0 -19 -4 -19 -9 0 -5 -11 -12 -25 -15 -14 -4 -25 -11 -25
-17 0 -6 -4 -8 -9 -4 -5 3 -12 1 -16 -5 -4 -6 -11 -8 -16 -5 -5 4 -9 2 -9 -4
0 -5 -9 -13 -20 -16 -11 -4 -17 -11 -14 -17 4 -7 2 -8 -4 -4 -7 4 -18 4 -24
-1 -7 -4 -17 -8 -23 -8 -5 -1 -9 -6 -8 -12 2 -7 -6 -10 -17 -8 -12 2 -24 -4
-30 -16 -6 -10 -17 -19 -26 -19 -8 0 -24 -9 -36 -20 -12 -10 -25 -17 -30 -14
-4 3 -8 0 -8 -6 0 -6 -4 -8 -10 -5 -5 3 -10 -1 -10 -10 0 -9 -4 -14 -9 -10 -5
3 -12 1 -16 -5 -4 -6 -11 -7 -17 -4 -6 4 -8 2 -5 -3 6 -9 -20 -27 -31 -23 -2
1 -11 -7 -20 -17 -9 -10 -30 -25 -45 -33 -16 -8 -41 -26 -55 -39 -15 -14 -31
-26 -35 -26 -4 0 -12 -6 -16 -14 -5 -7 -13 -11 -19 -7 -9 5 -27 -21 -24 -36 1
-3 -9 -5 -22 -4 -18 2 -23 -1 -18 -12 3 -9 1 -13 -5 -9 -6 4 -13 0 -17 -8 -3
-8 -10 -15 -16 -15 -6 0 -21 -11 -34 -25 -13 -13 -26 -22 -29 -18 -4 3 -7 -1
-7 -11 0 -9 -4 -15 -9 -11 -6 3 -14 -3 -20 -12 -6 -10 -11 -14 -11 -9 0 5 -8
-1 -19 -12 -10 -12 -22 -18 -26 -14 -5 4 -5 1 -1 -6 4 -7 1 -15 -9 -18 -9 -4
-34 -24 -56 -45 -22 -22 -45 -39 -50 -39 -6 0 -8 -4 -4 -9 3 -5 -3 -12 -13
-15 -9 -3 -41 -31 -70 -61 -29 -31 -58 -53 -63 -49 -5 3 -8 0 -7 -8 2 -7 -3
-12 -10 -10 -8 1 -11 -2 -7 -8 3 -6 -4 -14 -17 -19 -14 -6 -17 -10 -8 -11 9
-1 6 -5 -8 -11 -13 -5 -20 -13 -17 -19 3 -6 -4 -10 -16 -10 -18 0 -19 -3 -9
-15 10 -12 8 -14 -9 -10 -12 2 -19 0 -16 -6 4 -5 1 -9 -5 -9 -6 0 -9 -4 -5 -9
3 -5 -4 -12 -14 -16 -11 -3 -23 -15 -26 -26 -4 -10 -9 -18 -13 -16 -10 5 -51
-40 -44 -47 3 -3 0 -6 -7 -6 -7 0 -9 -4 -6 -10 3 -6 -1 -7 -9 -4 -15 6 -21 -6
-16 -31 1 -5 -1 -7 -5 -3 -10 9 -65 -49 -65 -69 0 -9 -3 -14 -6 -10 -7 6 -50
-35 -47 -45 2 -4 -6 -10 -17 -13 -18 -6 -24 -17 -21 -38 0 -4 -2 -6 -6 -5 -5
2 -9 -1 -10 -5 -1 -4 -19 -23 -39 -42 -20 -19 -34 -35 -30 -35 3 0 -2 -9 -11
-19 -9 -11 -20 -18 -25 -15 -5 3 -8 2 -7 -3 3 -20 -2 -34 -11 -28 -5 3 -10 -1
-10 -9 0 -9 -5 -16 -12 -16 -6 0 -9 -3 -5 -6 3 -3 -6 -17 -20 -30 -14 -13 -22
-28 -17 -35 4 -8 3 -9 -4 -5 -7 4 -12 1 -12 -9 0 -9 -4 -13 -10 -10 -5 3 -15
-7 -22 -22 -7 -15 -18 -32 -25 -36 -8 -5 -10 -13 -7 -19 5 -7 2 -9 -8 -5 -12
4 -15 0 -14 -18 2 -17 -1 -22 -12 -17 -10 3 -13 1 -8 -6 4 -7 3 -12 -3 -12 -6
0 -17 -16 -27 -35 -9 -19 -21 -33 -27 -32 -7 1 -11 -6 -9 -15 2 -12 -2 -16
-12 -12 -9 3 -14 11 -13 17 1 6 -8 12 -20 13 -12 1 -20 -2 -17 -7 2 -4 12 -5
22 -2 9 3 14 2 9 -2 -4 -5 0 -17 10 -27 9 -10 13 -19 10 -19 -4 -1 -13 -2 -19
-3 -7 -1 -12 -7 -10 -14 1 -7 -5 -12 -13 -12 -9 0 -12 -6 -9 -15 4 -9 0 -15
-9 -15 -20 0 -31 17 -16 26 8 4 7 9 -2 15 -12 7 -12 9 0 9 10 0 11 3 3 13 -7
8 -7 18 -2 27 14 21 12 32 -2 24 -10 -6 -10 -5 -1 7 10 12 10 18 0 29 -8 8 -8
11 -1 7 7 -4 14 0 17 7 3 8 1 17 -6 20 -8 3 -7 5 2 5 11 1 10 5 -5 16 -16 13
-16 14 -1 9 15 -6 16 -3 7 20 -7 20 -7 25 2 20 7 -5 9 -2 5 8 -3 9 -3 19 1 22
10 11 9 45 -1 39 -6 -4 -8 1 -4 11 4 10 7 20 7 22 0 3 4 3 9 -1 6 -3 6 6 1 25
-5 17 -5 30 0 30 5 0 7 10 5 22 -3 12 1 28 8 37 7 9 8 12 1 8 -7 -4 -11 2 -11
18 0 14 4 22 9 19 6 -4 6 2 -1 13 -7 14 -7 23 1 31 9 9 8 12 -2 12 -12 0 -13
2 -1 9 9 6 10 11 2 15 -6 4 -11 13 -11 19 0 7 4 6 10 -3 8 -12 10 -11 10 8 0
12 -6 22 -12 22 -10 0 -10 2 -1 8 18 11 19 77 2 99 -13 16 -13 17 3 5 16 -13
17 -10 13 27 -3 31 -1 40 8 35 9 -5 9 -4 0 6 -8 9 -9 20 -2 37 8 22 7 24 -8
19 -14 -6 -14 -4 3 15 10 12 13 19 7 15 -16 -9 -17 6 -1 22 9 9 9 12 1 12 -12
0 -12 37 -1 56 4 5 3 16 -2 24 -5 8 -5 22 1 32 5 10 6 18 2 18 -4 0 -8 37 -7
83 0 45 -4 90 -9 101 -6 13 -6 16 2 12 6 -4 11 -2 11 3 0 6 -4 11 -10 11 -5 0
-10 5 -10 11 0 5 5 7 12 3 7 -5 8 -3 2 7 -5 8 -10 34 -11 59 -1 25 -5 68 -8
96 -3 28 -8 71 -10 95 -2 24 -4 44 -5 44 -2 0 -11 80 -13 113 -1 12 -5 22 -10
22 -4 0 -6 3 -4 8 3 4 1 32 -5 62 -5 30 -11 73 -13 95 -2 22 -8 41 -12 42 -5
2 -8 17 -7 33 1 17 -3 30 -9 30 -7 0 -5 5 3 10 12 8 12 10 1 10 -8 0 -11 3 -8
6 3 4 2 15 -3 24 -5 10 -11 32 -12 49 -1 17 -7 31 -12 31 -5 0 -6 3 -3 7 4 3
1 13 -6 21 -10 13 -9 14 3 7 13 -8 13 -6 2 8 -8 9 -11 21 -7 27 3 5 1 10 -5
10 -6 0 -9 4 -6 8 3 5 -1 21 -9 36 -8 14 -10 24 -5 21 12 -7 2 21 -17 52 -11
17 -12 22 -1 26 10 4 10 6 1 6 -7 1 -13 10 -13 21 0 11 -4 20 -8 20 -5 0 -9 6
-10 13 -1 22 -10 55 -21 75 -6 11 -7 22 -4 26 3 3 1 6 -5 6 -7 0 -12 9 -12 20
0 11 -3 20 -7 20 -5 0 -9 12 -10 27 0 15 -6 29 -12 31 -6 2 -11 12 -11 23 0
10 -4 19 -10 19 -5 0 -10 5 -10 11 0 5 5 7 11 3 6 -3 3 5 -6 20 -10 14 -21 26
-26 26 -5 0 -6 6 -3 13 3 8 -8 26 -23 42 -19 20 -22 26 -10 22 11 -4 16 -3 12
3 -3 6 -13 10 -21 10 -8 0 -12 5 -9 10 3 6 -1 17 -9 26 -9 9 -13 20 -10 26 4
7 2 8 -5 4 -6 -4 -14 0 -18 10 -6 17 -24 42 -50 69 -7 8 -13 19 -13 25 0 6 -4
8 -10 5 -10 -6 -15 9 -10 30 1 6 -1 7 -5 3 -8 -7 -55 39 -55 54 0 5 -4 7 -9 3
-6 -3 -15 4 -21 16 -7 11 -14 18 -17 16 -2 -3 -17 8 -32 24 -16 16 -36 29 -45
29 -10 0 -15 4 -12 8 3 5 -23 22 -57 37 -69 32 -69 32 -98 34 -13 1 -18 5 -13
14 4 6 4 9 0 5 -5 -4 -19 -3 -32 2 -16 6 -24 6 -24 -1 0 -6 -5 -7 -12 -2 -16
10 -148 12 -148 2z m-605 -649 c-3 -5 -11 -10 -16 -10 -6 0 -7 5 -4 10 3 6 11
10 16 10 6 0 7 -4 4 -10z m-615 -1970 c0 -5 -5 -10 -11 -10 -5 0 -7 5 -4 10 3
6 8 10 11 10 2 0 4 -4 4 -10z m-10600 -8086 c0 -8 -19 -13 -24 -6 -3 5 1 9 9
9 8 0 15 -2 15 -3z"/>
<path d="M13995 19070 c4 -6 11 -8 16 -5 14 9 11 15 -7 15 -8 0 -12 -5 -9 -10z"/>
<path d="M15852 16967 c-8 -10 -5 -16 11 -27 20 -12 21 -12 9 3 -8 9 -11 21
-7 27 9 14 0 13 -13 -3z"/>
<path d="M15828 16933 c6 -2 10 -9 7 -14 -4 -5 1 -6 10 -2 13 5 14 7 3 14 -7
5 -17 8 -23 8 -5 0 -4 -3 3 -6z"/>
<path d="M15767 16875 c-4 -8 -2 -17 4 -20 5 -4 7 -11 4 -16 -4 -5 -1 -9 4 -9
6 0 11 7 11 16 0 8 5 12 10 9 6 -3 10 -1 10 5 0 7 -8 9 -20 5 -15 -5 -18 -3
-14 9 3 9 4 16 1 16 -3 0 -7 -7 -10 -15z"/>
<path d="M11015 2251 c3 -6 -1 -13 -8 -18 -19 -11 -37 -47 -37 -72 0 -12 -3
-21 -7 -21 -5 0 -7 -17 -7 -37 1 -21 -1 -42 -4 -48 -4 -5 -7 -23 -7 -40 0 -16
-3 -34 -6 -40 -3 -5 -7 -26 -8 -45 -5 -63 -7 -79 -13 -85 -3 -4 -4 -20 -1 -36
2 -16 0 -29 -5 -29 -5 0 -8 -11 -7 -25 2 -14 -1 -28 -7 -31 -6 -4 -5 -10 3
-15 8 -5 9 -9 4 -9 -6 0 -12 -17 -13 -37 -2 -20 -6 -42 -10 -48 -5 -5 -8 -27
-7 -47 0 -21 -2 -38 -6 -38 -3 0 -6 -6 -6 -12 -2 -33 -12 -89 -19 -99 -3 -6
-8 -23 -10 -38 -7 -57 -9 -66 -16 -72 -5 -3 -9 -17 -10 -32 -1 -15 -5 -27 -9
-27 -4 0 -6 -8 -5 -18 2 -9 -1 -19 -5 -22 -5 -3 -11 -17 -13 -30 -2 -14 -5
-26 -7 -27 -1 -2 -2 -6 -3 -10 -1 -5 -10 -29 -20 -55 -22 -58 -42 -64 -35 -12
0 4 -4 10 -9 13 -6 4 -12 18 -14 33 -2 15 -7 30 -11 34 -4 4 -7 18 -7 30 0 13
-4 25 -10 29 -5 3 -7 12 -4 19 3 8 0 17 -5 21 -6 3 -9 11 -5 16 3 5 1 16 -5
23 -6 7 -11 27 -13 44 -1 18 -6 32 -10 32 -4 0 -8 14 -8 30 0 17 -4 30 -8 30
-4 0 -8 8 -9 18 -2 46 -8 82 -13 82 -6 0 -35 119 -32 133 1 4 -2 7 -6 7 -5 0
-9 6 -10 13 -2 23 -8 42 -21 66 -11 19 -11 22 1 15 8 -5 7 1 -4 19 -10 14 -18
35 -18 47 0 11 -5 20 -11 20 -5 0 -7 5 -4 10 3 6 1 10 -5 10 -7 0 -9 7 -6 15
3 9 -1 18 -9 21 -8 3 -11 12 -8 21 5 12 3 14 -7 8 -8 -5 -11 -3 -8 6 7 18 -46
85 -72 92 -15 4 -32 -6 -60 -32 -22 -21 -41 -36 -43 -34 -2 1 -10 -8 -17 -22
-7 -14 -17 -25 -22 -25 -4 0 -8 -7 -8 -15 0 -8 -8 -19 -19 -24 -10 -6 -24 -24
-31 -41 -7 -16 -17 -30 -23 -30 -6 0 -8 -3 -4 -6 3 -3 -4 -23 -17 -43 -26 -41
-40 -73 -38 -83 1 -5 -3 -8 -8 -8 -5 0 -9 -3 -8 -7 1 -5 -6 -23 -15 -40 -10
-18 -15 -33 -12 -33 3 0 -1 -10 -10 -23 -8 -13 -12 -27 -8 -30 3 -4 1 -7 -5
-7 -7 0 -11 -3 -10 -7 1 -5 -4 -19 -12 -33 -7 -14 -13 -26 -12 -27 7 -11 0
-23 -10 -17 -7 4 -8 3 -4 -5 8 -13 -14 -71 -28 -71 -4 0 -6 -7 -3 -15 4 -8 2
-17 -4 -21 -6 -3 -8 -12 -5 -20 3 -8 1 -14 -4 -14 -9 0 -26 -39 -22 -52 1 -5
-3 -8 -9 -8 -5 0 -8 -4 -4 -9 3 -5 -1 -15 -8 -23 -8 -7 -12 -18 -10 -25 2 -6
-1 -15 -8 -19 -8 -4 -9 -3 -5 4 4 7 1 12 -10 12 -13 0 -14 3 -5 14 9 10 8 16
-4 26 -9 7 -14 19 -11 27 3 7 2 13 -2 13 -4 0 -8 9 -9 19 -1 11 -9 40 -17 66
-9 26 -14 51 -11 56 4 5 1 9 -4 9 -6 0 -11 10 -11 23 0 13 -3 27 -7 31 -4 3
-8 17 -10 29 -2 12 -6 29 -9 37 -4 8 -8 26 -10 39 -2 13 -6 31 -10 40 -4 9 -8
27 -9 41 -2 14 -6 36 -9 50 -5 21 -12 56 -20 95 -1 6 -6 16 -10 24 -7 10 -6
12 4 6 10 -6 11 -4 4 6 -9 15 -12 27 -18 69 -8 53 -19 90 -27 90 -5 0 -9 7 -9
15 0 8 -4 15 -9 15 -5 0 -17 7 -26 16 -10 11 -35 17 -67 18 -44 1 -53 -3 -70
-25 -11 -15 -21 -38 -21 -53 -1 -14 -6 -26 -11 -26 -5 0 -3 -6 3 -14 9 -11 9
-15 -1 -19 -9 -4 -10 -6 -1 -6 7 -1 10 -8 6 -17 -3 -9 0 -20 8 -25 8 -5 9 -9
3 -9 -6 0 -10 -10 -8 -22 1 -13 3 -23 4 -23 2 0 4 -16 6 -35 2 -19 6 -51 9
-70 10 -79 17 -136 18 -157 1 -13 5 -23 9 -23 4 0 6 -13 4 -30 -2 -16 0 -30 3
-30 4 0 6 -13 5 -30 -1 -16 3 -30 8 -30 6 0 4 -8 -3 -17 -8 -9 -9 -14 -3 -10
7 4 11 -5 12 -24 0 -17 7 -38 14 -47 11 -13 11 -14 -1 -7 -11 6 -12 5 -5 -6
10 -17 16 -38 15 -63 0 -11 4 -27 9 -36 5 -10 10 -34 12 -54 1 -20 5 -36 8
-36 4 0 7 -6 8 -12 0 -7 3 -20 5 -28 2 -8 7 -33 12 -55 4 -22 12 -46 18 -52 5
-7 6 -13 2 -13 -4 0 -1 -8 6 -17 8 -10 9 -14 2 -10 -8 5 -7 -2 2 -21 8 -15 16
-37 18 -48 2 -10 9 -32 15 -47 7 -16 12 -32 12 -37 0 -4 18 -23 40 -41 34 -28
48 -33 95 -34 30 -1 55 2 55 7 0 4 8 8 18 8 11 0 29 9 42 20 13 11 27 20 32
20 12 0 67 57 61 63 -2 3 4 8 14 11 11 4 20 17 21 33 1 15 6 29 10 32 11 8 32
83 26 93 -3 4 -1 8 3 8 8 0 36 79 38 107 0 6 4 15 8 19 4 4 7 18 7 31 0 13 4
22 9 19 5 -4 8 2 6 11 -1 10 6 34 16 54 10 20 15 39 12 43 -4 3 -1 6 5 6 6 0
9 9 7 20 -2 11 0 18 4 15 9 -5 26 24 22 39 -1 4 3 14 10 22 6 7 7 19 3 25 -4
7 -3 9 3 6 5 -3 19 14 31 38 12 25 26 45 32 45 5 0 9 -3 8 -7 0 -5 2 -16 5
-25 4 -10 10 -26 14 -35 9 -26 9 -24 23 -75 8 -27 17 -48 21 -48 4 0 6 -8 4
-17 -1 -10 2 -24 8 -31 5 -7 7 -15 4 -18 -3 -3 1 -17 8 -31 7 -14 11 -32 8
-39 -3 -8 0 -14 6 -14 6 0 10 -3 9 -7 -3 -16 26 -133 34 -133 4 0 8 -5 8 -11
0 -5 -6 -7 -12 -3 -10 6 -10 4 -2 -7 13 -16 35 -100 37 -136 0 -7 4 -13 9 -13
4 0 7 -3 7 -7 -4 -26 2 -43 14 -37 9 6 9 5 0 -8 -7 -8 -10 -18 -6 -22 4 -3 8
-13 10 -21 5 -25 9 -39 21 -68 7 -16 12 -34 12 -40 0 -30 72 -87 85 -67 3 5
12 7 20 3 8 -3 15 0 15 7 0 6 4 9 8 6 5 -3 20 1 35 9 14 7 28 11 31 7 3 -3 6
0 6 7 0 8 7 11 15 7 8 -3 15 -2 15 3 0 5 13 14 30 21 16 7 27 16 24 21 -3 5 1
9 9 9 14 0 32 27 29 43 -1 4 3 7 8 7 6 0 10 5 10 11 0 6 7 17 15 26 8 8 13 19
10 24 -4 5 -1 9 6 9 7 0 9 3 6 6 -3 4 0 16 8 28 8 11 15 28 15 38 0 10 4 18
10 18 5 0 7 7 4 15 -4 8 -1 15 6 15 7 0 10 7 6 15 -3 8 -1 15 5 15 6 0 7 5 4
10 -4 6 -2 16 3 23 9 11 24 66 23 84 0 5 7 18 15 31 11 17 11 22 2 22 -10 0
-10 2 0 9 8 4 13 11 13 15 -3 21 0 37 7 32 4 -2 7 11 6 30 -1 19 2 34 6 34 5
0 9 8 9 18 -1 23 10 83 18 102 3 8 7 22 7 30 1 8 5 21 9 28 5 6 6 16 2 21 -3
5 -1 12 4 15 5 4 8 14 6 24 -1 9 2 28 7 42 9 24 17 74 21 130 1 14 5 28 10 31
4 3 8 21 10 40 2 19 6 40 11 47 4 7 2 12 -5 12 -8 0 -8 4 1 15 7 8 10 21 7 30
-4 8 -2 17 4 21 7 4 7 10 0 18 -7 8 -7 16 -1 22 6 6 11 34 11 62 1 28 5 49 10
46 5 -3 7 1 4 8 -11 30 -12 78 -1 78 6 0 5 4 -3 9 -8 6 -9 11 -3 15 11 7 -10
56 -35 84 -7 7 -13 18 -13 23 0 5 -7 9 -17 9 -9 0 -13 3 -10 7 4 3 -2 12 -13
20 -23 16 -94 28 -85 14z"/>
<path d="M9090 2171 c0 -6 -7 -8 -15 -5 -8 4 -15 1 -15 -5 0 -6 -3 -10 -7 -10
-5 1 -13 1 -20 0 -16 -1 -127 -112 -132 -131 -5 -21 -13 -89 -15 -130 -1 -19
-5 -40 -9 -47 -4 -6 -3 -14 3 -18 6 -4 7 -11 3 -18 -8 -13 -8 -85 1 -94 3 -3
1 -13 -6 -20 -9 -11 -9 -17 3 -24 11 -7 11 -9 0 -9 -11 0 -11 -3 -1 -15 10
-12 10 -15 -1 -15 -9 0 -10 -3 -4 -8 6 -4 10 -14 10 -22 0 -8 -4 -18 -10 -22
-7 -5 -6 -8 0 -8 6 0 12 -24 13 -52 2 -59 9 -153 11 -153 1 0 4 -25 6 -55 8
-93 12 -127 17 -136 2 -5 5 -22 6 -39 3 -43 7 -64 14 -70 3 -4 3 -15 1 -26 -6
-20 -7 -19 -29 7 -13 15 -24 31 -24 36 0 5 -3 7 -7 5 -5 -2 -16 4 -25 15 -10
10 -15 18 -11 18 3 0 -4 9 -17 20 -13 11 -20 20 -17 20 3 0 -5 11 -18 25 -14
13 -25 29 -25 35 0 6 -4 8 -10 5 -5 -3 -10 3 -10 15 0 11 -7 23 -15 26 -8 4
-15 12 -15 20 0 7 -6 17 -13 21 -8 4 -17 15 -20 23 -4 8 -16 29 -27 45 -10 17
-29 49 -41 73 -13 23 -27 42 -31 42 -5 0 -7 4 -3 10 3 5 -3 18 -13 28 -10 10
-16 24 -14 30 2 7 -1 12 -8 12 -6 0 -8 5 -5 10 3 6 1 10 -4 10 -6 0 -10 6 -9
13 2 6 -3 11 -10 9 -6 -1 -11 1 -10 5 4 12 -24 76 -39 91 -7 8 -11 18 -8 23 4
5 1 9 -4 9 -6 0 -11 7 -11 15 0 8 -5 15 -11 15 -5 0 -7 5 -4 10 3 6 1 10 -4
10 -6 0 -10 3 -9 8 1 4 -3 17 -10 28 -6 12 -10 23 -9 25 1 2 0 3 -2 1 -2 -1
-19 26 -37 60 -17 35 -48 92 -68 128 -20 36 -39 73 -42 83 -4 9 -11 17 -16 17
-5 0 -7 4 -3 9 6 11 -23 22 -45 17 -23 -5 -86 -35 -75 -36 6 0 -3 -8 -18 -16
-16 -8 -25 -20 -21 -26 4 -7 3 -8 -4 -4 -7 4 -12 2 -12 -5 0 -7 -3 -9 -7 -6
-13 14 -35 -47 -49 -138 -3 -22 -8 -43 -11 -47 -2 -5 2 -8 9 -8 8 0 9 -3 3 -8
-11 -8 -14 -32 -16 -134 -1 -42 -5 -66 -11 -62 -6 4 -5 -3 1 -15 8 -14 9 -27
2 -39 -7 -13 -6 -23 1 -30 9 -9 8 -12 -2 -12 -13 0 -13 -2 0 -10 9 -6 10 -10
3 -10 -8 0 -9 -9 -3 -30 5 -17 6 -28 2 -26 -12 7 -9 -688 2 -696 8 -5 7 -8 -1
-8 -6 0 -10 -6 -9 -13 15 -72 19 -87 27 -87 5 0 9 -5 9 -11 0 -13 25 -39 38
-39 6 0 12 -5 14 -10 2 -6 13 -12 26 -13 12 0 22 -5 22 -9 0 -5 8 -4 19 1 10
6 21 8 23 5 9 -8 41 48 45 80 6 47 15 207 28 456 3 63 8 123 11 134 4 13 3 16
-6 11 -9 -6 -11 -4 -4 6 4 8 9 39 10 69 1 30 5 67 7 82 3 15 1 30 -4 34 -6 3
-6 10 -1 17 5 7 10 29 10 50 0 20 1 39 1 42 1 6 38 -28 38 -35 2 -33 4 -40 13
-35 6 3 10 0 10 -8 0 -18 41 -100 53 -105 4 -2 7 -10 7 -18 0 -8 5 -14 11 -14
5 0 8 -4 4 -9 -3 -5 1 -16 9 -24 8 -8 12 -17 9 -21 -4 -3 -1 -6 6 -6 7 0 9 -4
6 -10 -3 -5 -2 -10 3 -10 4 0 19 -20 31 -45 12 -24 26 -47 32 -50 5 -4 7 -10
4 -15 -3 -4 2 -11 11 -14 8 -3 13 -10 9 -15 -3 -6 0 -13 7 -18 7 -4 20 -21 28
-36 8 -16 24 -40 37 -53 12 -14 22 -27 22 -30 -1 -3 13 -23 30 -45 17 -21 31
-40 30 -41 -1 -2 19 -25 44 -51 26 -26 47 -52 47 -57 0 -6 7 -10 16 -10 8 0
12 -4 9 -10 -3 -5 -2 -10 2 -10 5 0 28 -18 51 -40 22 -22 46 -40 51 -40 5 0
11 -3 13 -8 5 -13 100 -72 108 -67 4 3 11 -2 14 -11 3 -8 10 -13 15 -9 5 3 13
0 16 -6 4 -5 13 -8 21 -5 8 3 14 2 14 -2 0 -5 18 -9 41 -11 62 -3 70 13 67
141 -2 60 -5 108 -8 108 -6 0 -7 8 -12 73 -1 20 -6 37 -10 37 -5 0 -4 8 1 18
6 11 6 23 1 28 -5 5 -10 44 -12 86 -2 43 -6 78 -10 78 -4 0 -3 11 2 25 5 14 6
25 2 25 -4 0 -8 9 -9 20 -1 11 3 20 8 20 6 0 7 6 2 13 -11 17 -10 407 0 414 5
3 4 9 -3 13 -9 6 -9 13 0 31 10 17 10 24 1 27 -6 2 -8 9 -4 14 9 16 12 327 2
333 -4 3 -6 12 -2 20 3 8 0 15 -5 15 -6 0 -18 7 -26 16 -9 8 -16 11 -16 5z"/>
<path d="M11559 2176 c-2 -3 -16 -7 -29 -9 -14 -2 -34 -8 -45 -12 -27 -12 -95
-87 -95 -105 0 -9 -5 -21 -12 -28 -9 -9 -9 -12 1 -12 7 0 9 -5 5 -11 -4 -6 -8
-25 -9 -41 -2 -16 -5 -31 -8 -35 -3 -3 -2 -16 3 -29 5 -13 6 -24 2 -24 -4 0
-7 -26 -6 -57 1 -32 -3 -63 -8 -70 -5 -6 -5 -14 -1 -16 11 -7 10 -137 0 -154
-4 -6 -4 -14 1 -17 10 -6 10 -66 -1 -82 -3 -6 -3 -14 0 -18 11 -11 14 -48 3
-41 -6 3 -7 -1 -4 -9 3 -9 11 -13 17 -9 6 4 7 1 2 -7 -4 -7 -7 -47 -6 -89 1
-42 3 -144 4 -228 1 -83 4 -150 7 -148 3 2 6 -34 6 -79 1 -52 8 -94 17 -112
24 -45 78 -95 126 -117 49 -22 121 -31 121 -15 0 7 5 7 13 -1 8 -6 17 -8 21
-4 4 4 24 8 44 9 20 1 38 3 40 4 1 2 5 3 10 4 4 1 13 5 20 9 7 5 12 4 12 -3 0
-7 6 -8 19 -1 10 6 21 7 25 4 3 -3 6 0 6 8 0 11 2 11 10 -1 5 -8 10 -10 10 -4
0 6 10 10 23 9 12 -1 29 2 37 6 16 8 122 31 153 32 9 1 17 5 17 9 0 4 11 8 24
8 14 0 28 5 31 10 4 6 10 8 15 5 5 -3 24 1 42 8 18 8 35 14 38 14 18 0 117 27
127 35 7 5 17 7 22 4 5 -4 13 -1 16 5 4 5 14 8 22 5 8 -3 12 -2 9 3 -6 9 31
25 49 21 6 -1 7 1 3 5 -4 4 -1 14 7 22 18 18 20 69 3 76 -10 4 -10 6 0 6 7 1
-3 17 -22 36 -20 19 -32 35 -28 35 3 0 -5 8 -18 17 -14 10 -28 17 -32 15 -5
-1 -8 3 -8 9 0 5 -4 7 -10 4 -5 -3 -10 -2 -10 4 0 5 -8 8 -17 6 -10 -1 -23 2
-30 7 -7 5 -14 5 -17 -1 -4 -6 -13 -8 -21 -4 -8 3 -15 0 -15 -5 0 -6 -9 -9
-20 -7 -11 2 -20 0 -20 -5 0 -8 -52 -24 -66 -20 -4 1 -10 -2 -13 -7 -5 -7 -52
-22 -123 -39 -10 -2 -28 -7 -40 -10 -13 -3 -40 -8 -60 -11 -21 -3 -38 -9 -38
-12 0 -4 -12 -6 -27 -6 -16 1 -32 -1 -38 -4 -11 -6 -51 -12 -87 -14 -16 0 -28
-4 -28 -8 0 -3 -14 -5 -31 -3 -17 2 -39 -1 -50 -6 -13 -7 -19 -7 -19 0 0 5 -7
10 -16 10 -8 0 -12 5 -8 11 3 6 7 64 8 128 1 64 5 122 9 129 5 6 4 12 0 12
-10 0 -10 61 0 78 4 6 3 13 -2 16 -5 4 -6 19 -3 34 4 15 7 100 7 189 0 90 2
163 5 163 11 0 6 40 -5 40 -6 0 -7 3 0 8 13 9 15 52 2 52 -5 0 -4 6 2 14 8 9
8 16 2 20 -6 4 -8 13 -5 21 8 19 11 145 4 145 -10 0 -5 55 5 62 6 5 5 8 -3 8
-9 0 -10 5 -3 19 6 10 7 21 4 25 -4 4 -8 13 -9 20 -5 34 -18 62 -37 79 -22 19
-22 19 -28 13z"/>
</g>
</svg>
