<?xml version="1.0" standalone="no"?>
<!DOCTYPE svg PUBLIC "-//W3C//DTD SVG 20010904//EN"
 "http://www.w3.org/TR/2001/REC-SVG-20010904/DTD/svg10.dtd">
<svg version="1.0" xmlns="http://www.w3.org/2000/svg"
 width="2048.000000pt" height="2048.000000pt" viewBox="0 0 2048.000000 2048.000000"
 preserveAspectRatio="xMidYMid meet">
<metadata>
Created by potrace 1.14, written by Peter Selinger 2001-2017
</metadata>
<g transform="translate(0.000000,2048.000000) scale(0.100000,-0.100000)"
fill="#000000" stroke="none">
<path d="M13344 16415 c-64 -19 -151 -64 -183 -94 -17 -16 -31 -27 -31 -24 0
5 -31 -28 -97 -106 -12 -14 -25 -38 -28 -53 -4 -15 -11 -28 -16 -28 -5 0 -9
-5 -9 -11 0 -5 6 -7 13 -3 6 4 3 -2 -7 -14 -11 -12 -16 -25 -13 -29 4 -3 -1
-12 -11 -20 -10 -9 -11 -11 -2 -7 13 7 13 5 2 -9 -8 -9 -10 -22 -6 -28 4 -7 3
-9 -3 -6 -6 4 -13 -2 -16 -13 -3 -12 -1 -17 5 -14 9 6 7 -1 -21 -55 -10 -19
-10 -22 1 -15 10 6 11 5 1 -7 -6 -8 -14 -29 -17 -46 -3 -18 -9 -48 -12 -65 -3
-18 -9 -37 -13 -43 -4 -5 -7 -25 -7 -42 1 -18 -3 -33 -8 -33 -4 0 -6 -7 -3
-15 4 -8 2 -17 -3 -20 -5 -3 -9 -13 -8 -23 1 -40 -21 -206 -38 -292 -3 -19 -7
-45 -7 -57 -1 -13 -4 -23 -7 -23 -3 0 -6 -8 -7 -17 -1 -22 -11 -98 -13 -98 -1
0 -3 -8 -5 -19 -8 -44 -28 -122 -33 -131 -6 -9 -13 -45 -15 -77 -1 -10 -5 -18
-9 -18 -4 0 -5 -7 -2 -15 4 -8 1 -15 -7 -15 -7 0 -10 -3 -6 -6 3 -3 -3 -26
-13 -50 -11 -24 -16 -44 -12 -44 4 0 3 -4 -3 -8 -5 -4 -21 -29 -35 -56 -30
-59 -86 -121 -120 -134 -32 -12 -107 -6 -179 14 -73 20 -285 73 -336 84 -22 5
-51 11 -65 14 -13 3 -42 8 -64 12 -22 3 -43 7 -46 9 -3 2 -26 6 -50 9 -25 3
-68 10 -97 15 -29 6 -74 13 -100 16 -26 3 -64 8 -83 12 -19 3 -48 7 -65 9 -61
6 -142 14 -195 19 -30 2 -86 8 -125 11 -38 4 -76 6 -82 5 -22 -2 -36 -1 -93 3
-30 3 -99 7 -152 8 -57 2 -98 7 -98 13 0 6 -5 3 -10 -5 -6 -9 -10 -10 -10 -3
0 8 -9 9 -29 3 -21 -6 -31 -5 -34 3 -3 9 -8 8 -20 -2 -10 -7 -17 -9 -17 -4 0
5 -23 8 -52 7 -59 -4 -144 -4 -328 -3 -166 2 -796 -10 -840 -15 -19 -3 -75 -8
-124 -11 -50 -4 -97 -8 -105 -10 -9 -1 -50 -6 -91 -10 -41 -4 -84 -9 -95 -11
-11 -2 -37 -6 -59 -9 -47 -6 -78 -11 -181 -30 -147 -26 -161 -29 -366 -79 -58
-14 -125 -32 -148 -40 -22 -9 -45 -16 -49 -16 -16 -1 -88 -21 -107 -29 -64
-28 -209 -71 -214 -64 -3 4 -18 14 -33 22 -33 17 -112 96 -209 209 -8 9 -27
34 -43 57 -16 22 -34 43 -40 47 -6 4 -8 8 -3 8 4 0 -9 22 -28 50 -19 27 -36
55 -37 62 -2 7 -6 15 -9 18 -15 13 -134 261 -131 273 1 4 -3 7 -10 7 -6 0 -9
3 -5 6 3 4 -1 13 -9 21 -8 8 -12 19 -9 24 4 5 1 9 -5 9 -6 0 -9 4 -5 9 3 5 -2
17 -11 25 -8 9 -12 16 -8 16 3 0 1 7 -6 15 -7 8 -10 15 -6 15 4 0 -1 11 -9 24
-9 13 -18 34 -20 47 -3 12 -10 26 -16 29 -6 4 -10 10 -9 14 1 4 -1 17 -5 29
-4 12 -9 28 -10 36 -2 8 -8 17 -13 20 -8 6 -24 53 -21 67 0 4 -3 10 -8 13 -5
3 -17 29 -27 56 -10 28 -45 105 -77 173 -33 67 -59 124 -59 127 0 10 -106 175
-138 215 -56 68 -129 140 -145 140 -7 0 -19 6 -25 13 -7 6 -16 12 -20 12 -4 1
-32 10 -62 22 -55 21 -180 29 -180 12 0 -5 -7 -6 -15 -3 -8 4 -33 -1 -55 -10
-22 -9 -40 -13 -40 -11 0 3 -10 -3 -22 -15 -12 -11 -27 -20 -33 -20 -5 0 -44
-35 -86 -79 -63 -65 -86 -98 -131 -192 -54 -110 -70 -151 -73 -194 -1 -11 -5
-27 -8 -35 -22 -57 -30 -156 -28 -385 1 -138 3 -259 5 -270 2 -11 7 -54 10
-95 15 -164 50 -380 81 -505 9 -33 18 -73 21 -90 3 -16 10 -38 16 -48 5 -10 7
-21 4 -24 -3 -3 1 -18 9 -33 8 -15 17 -42 20 -60 l6 -31 -26 25 c-13 14 -45
39 -70 56 -25 17 -45 35 -45 40 0 6 -7 10 -15 10 -8 0 -15 4 -15 8 0 4 -13 16
-30 25 -16 10 -35 23 -42 30 -7 7 -42 33 -78 57 -36 25 -70 50 -76 55 -10 10
-175 115 -277 176 -383 232 -822 395 -1222 456 -63 10 -354 10 -420 1 -219
-31 -396 -113 -538 -251 -26 -25 -47 -49 -47 -53 0 -3 -12 -20 -26 -37 -52
-61 -117 -216 -131 -307 -3 -19 -8 -53 -12 -76 -8 -39 -6 -217 3 -279 16 -124
55 -268 107 -405 19 -47 32 -88 31 -92 -1 -5 1 -8 6 -8 4 0 13 -15 21 -32 35
-86 54 -118 63 -111 7 3 8 1 4 -5 -4 -6 -1 -22 6 -34 7 -13 11 -26 10 -30 -1
-5 2 -8 7 -8 5 0 13 -9 16 -21 9 -26 121 -207 146 -235 11 -11 19 -24 19 -27
0 -4 22 -37 50 -72 173 -224 155 -202 255 -314 128 -143 385 -389 520 -498 34
-26 67 -54 75 -60 40 -34 78 -63 83 -63 3 0 21 -14 39 -30 19 -17 39 -28 48
-25 8 4 11 3 8 -1 -8 -8 16 -34 31 -34 6 0 11 -4 11 -8 0 -12 56 -42 65 -34 5
4 5 2 2 -4 -3 -6 6 -17 21 -25 15 -8 33 -20 40 -26 13 -12 27 -17 44 -14 4 0
4 -7 1 -17 -3 -9 -3 -14 2 -10 4 4 27 -7 51 -23 25 -19 47 -28 55 -24 7 5 10
4 6 -2 -4 -6 7 -16 23 -23 17 -7 30 -17 30 -22 0 -5 4 -7 9 -4 5 3 14 -1 21
-9 7 -8 16 -12 21 -9 5 3 9 0 9 -5 0 -6 3 -10 8 -9 11 3 80 -32 94 -49 14 -18
19 -83 6 -83 -5 0 -7 -4 -3 -9 5 -9 -13 -70 -38 -131 -5 -14 -11 -29 -13 -35
-1 -5 -13 -46 -27 -90 -28 -86 -92 -315 -101 -355 -3 -14 -14 -63 -25 -110
-19 -85 -29 -139 -37 -195 -2 -16 -6 -37 -9 -45 -3 -8 -7 -38 -11 -65 -3 -27
-7 -52 -9 -55 -2 -3 -7 -35 -10 -70 -4 -36 -9 -78 -11 -95 -2 -16 -7 -57 -10
-90 -3 -33 -7 -71 -10 -85 -8 -46 -18 -323 -18 -505 0 -214 9 -394 29 -610 8
-89 8 -89 20 -97 7 -5 7 -8 0 -8 -6 0 -9 -17 -7 -40 2 -22 8 -40 14 -40 5 0 6
-5 3 -10 -4 -6 1 -58 10 -117 9 -58 18 -117 20 -132 2 -14 4 -26 5 -26 1 0 3
-11 6 -25 2 -14 11 -30 18 -35 11 -9 -3 -36 -73 -140 -86 -131 -183 -307 -219
-400 -10 -27 -23 -59 -27 -70 -5 -11 -9 -22 -10 -25 -1 -3 -4 -12 -7 -20 -19
-48 -54 -167 -64 -215 -30 -150 -34 -173 -41 -255 -13 -133 -7 -370 11 -455 5
-25 18 -103 18 -110 0 -2 9 -37 20 -77 10 -40 23 -86 27 -103 22 -84 109 -293
155 -375 11 -19 29 -53 41 -75 12 -23 38 -66 58 -96 20 -31 37 -59 37 -62 0
-6 16 -28 45 -61 6 -6 24 -31 40 -56 17 -24 37 -52 45 -61 8 -9 24 -27 34 -40
118 -147 298 -330 465 -469 30 -25 65 -55 79 -68 14 -12 28 -22 31 -22 3 0 20
-13 37 -28 31 -26 75 -59 179 -131 28 -19 53 -39 57 -45 4 -6 8 -8 8 -5 0 6
139 -80 176 -108 10 -8 17 -12 99 -57 28 -16 55 -32 60 -36 11 -9 180 -98 265
-141 76 -37 282 -133 358 -165 17 -8 47 -20 65 -28 17 -8 52 -22 77 -31 25
-10 59 -23 77 -31 17 -8 34 -14 38 -14 4 0 21 -6 38 -14 18 -8 86 -33 152 -56
66 -22 145 -49 175 -60 59 -20 252 -79 279 -85 9 -3 43 -12 76 -21 33 -9 65
-17 70 -19 6 -1 17 -4 25 -8 8 -3 58 -15 110 -27 52 -13 102 -25 110 -28 8 -3
24 -7 35 -8 11 -2 38 -8 60 -14 22 -5 51 -12 65 -14 26 -5 155 -32 200 -42 28
-6 110 -22 155 -29 17 -2 41 -7 55 -9 14 -3 45 -8 70 -12 24 -3 47 -7 50 -9 3
-2 30 -6 60 -10 30 -3 80 -10 110 -15 30 -5 78 -12 105 -15 28 -3 61 -8 75
-10 70 -11 334 -37 495 -49 50 -4 113 -9 140 -11 291 -24 999 -25 1365 -1 212
14 267 20 535 51 28 3 73 8 100 10 28 2 50 5 50 5 0 2 35 8 80 15 22 3 51 7
65 9 14 3 48 7 77 10 28 3 57 8 65 11 7 2 32 6 55 9 23 2 46 6 50 9 4 3 32 8
61 11 29 3 56 7 60 10 4 2 24 7 44 10 32 5 379 79 431 92 38 9 224 58 282 74
17 4 41 12 55 18 14 5 30 10 35 11 47 7 390 121 555 184 192 73 527 220 590
257 8 5 40 21 70 36 30 15 57 29 60 33 3 3 25 16 50 28 45 23 82 43 175 97 49
29 331 212 350 228 6 5 46 36 90 69 44 34 100 78 125 100 25 21 61 51 80 66
48 38 286 278 335 337 38 47 52 63 96 114 10 12 19 26 19 31 0 5 7 14 15 21
34 28 166 244 233 380 105 214 169 417 198 629 3 25 8 57 10 71 6 34 5 340 0
368 -3 13 -7 31 -10 40 -3 9 -8 34 -12 56 -3 21 -8 48 -10 60 -3 11 -7 32 -10
46 -4 21 -10 48 -19 83 -2 4 -3 14 -4 23 0 8 -5 13 -9 10 -4 -3 -7 8 -6 25 1
16 -2 29 -8 29 -5 0 -6 5 -3 10 3 6 3 16 -2 23 -4 6 -8 14 -8 17 -5 26 -30 90
-36 90 -4 0 -6 8 -4 18 1 9 -4 25 -13 35 -8 9 -12 17 -9 17 3 0 -6 24 -20 52
-15 29 -26 58 -26 65 0 7 -4 13 -9 13 -4 0 -8 7 -8 16 0 9 -5 12 -12 8 -7 -4
-10 -4 -6 1 6 7 -36 103 -51 115 -3 3 -17 25 -30 50 -14 25 -28 47 -31 50 -4
3 -13 16 -20 29 -13 26 -24 40 -52 71 -9 10 -14 20 -12 23 2 2 -8 17 -22 32
-30 32 -63 102 -43 89 9 -5 10 -1 7 14 -4 12 -3 24 2 27 4 2 11 26 14 52 4 27
9 55 11 63 10 47 19 115 29 206 2 23 7 55 10 70 3 16 8 58 12 94 3 36 7 83 10
105 24 230 33 647 19 895 -11 218 -26 392 -35 403 -1 1 -3 22 -5 47 -4 58 -23
184 -40 270 -3 14 -7 39 -10 55 -3 17 -10 50 -16 75 -5 25 -11 56 -13 70 -2
14 -6 32 -9 40 -3 8 -13 47 -22 85 -20 86 -23 100 -25 100 -1 0 -3 7 -5 15 -1
8 -8 35 -15 60 -7 25 -13 50 -15 55 -1 6 -5 17 -8 25 -3 8 -13 40 -22 70 -9
30 -19 62 -22 70 -4 8 -7 20 -8 25 0 6 -7 9 -15 7 -11 -3 -11 0 -1 12 10 11 9
16 -3 23 -21 12 -13 20 94 92 52 36 97 67 100 71 3 3 21 17 40 30 19 13 37 27
40 30 3 3 34 29 70 58 248 202 525 496 737 782 26 36 51 67 55 68 5 2 8 10 8
18 0 8 5 14 10 14 6 0 10 6 10 14 0 8 3 16 8 18 4 2 25 31 47 65 22 34 44 59
49 56 5 -4 6 -2 3 4 -4 6 8 32 25 59 18 27 37 58 44 69 6 11 21 38 34 60 12
22 41 74 63 115 22 41 44 76 49 78 4 2 8 9 8 16 0 7 18 53 41 102 59 129 64
141 97 224 16 41 33 84 37 95 4 11 9 25 11 32 6 31 28 89 37 101 5 6 7 12 4
12 -3 0 1 21 9 48 15 46 17 56 30 117 3 17 9 34 12 39 3 6 6 19 8 30 3 42 16
101 23 106 3 3 6 21 7 40 1 19 5 85 9 145 11 133 11 214 0 320 -9 96 -11 106
-18 125 -3 8 -11 40 -18 70 -41 182 -174 391 -314 495 -22 16 -42 32 -45 35
-12 13 -168 84 -210 95 -14 3 -41 10 -60 15 -63 17 -123 23 -215 24 -88 1
-230 -10 -243 -18 -4 -2 -25 -7 -47 -10 -22 -4 -71 -16 -110 -28 -38 -11 -74
-21 -80 -23 -5 -1 -23 -7 -38 -13 -16 -7 -31 -12 -33 -12 -3 0 -26 -9 -52 -21
-26 -11 -63 -27 -82 -36 -90 -39 -248 -122 -268 -140 -7 -7 -19 -13 -26 -13
-7 0 -21 -9 -31 -20 -10 -11 -21 -17 -25 -15 -4 3 -10 -2 -14 -10 -3 -8 -11
-15 -17 -15 -17 0 -139 -89 -139 -102 0 -6 -3 -9 -6 -5 -7 7 -90 -51 -141
-100 -13 -13 -26 -23 -29 -23 -5 0 -23 -15 -93 -80 -24 -22 -47 -40 -52 -40
-4 0 -11 -9 -14 -20 -3 -11 -11 -20 -17 -20 -5 0 -32 -22 -58 -49 -27 -27 -51
-47 -54 -44 -3 4 -6 1 -6 -5 0 -7 -19 -31 -42 -53 -24 -23 -42 -46 -40 -50 1
-5 -5 -9 -13 -9 -8 0 -15 -4 -15 -8 0 -5 -24 -33 -52 -63 -29 -30 -71 -77 -93
-103 -22 -27 -47 -56 -55 -65 -8 -9 -26 -32 -40 -51 -13 -19 -29 -40 -35 -46
-5 -6 -19 -23 -30 -38 -11 -16 -26 -34 -32 -41 -7 -8 -13 -18 -13 -23 0 -6 -7
-13 -16 -16 -8 -3 -12 -10 -9 -16 6 -9 -8 -14 -28 -11 -5 1 -6 -3 -3 -8 9 -14
-4 -41 -20 -41 -8 0 -14 5 -14 10 0 6 -5 10 -10 10 -6 0 -3 -11 6 -25 9 -14
12 -25 6 -25 -6 0 -15 7 -20 16 -6 11 -11 13 -16 5 -4 -6 -2 -11 4 -11 7 0 10
-7 7 -14 -4 -11 -1 -13 11 -10 14 5 15 4 2 -5 -21 -15 -33 -14 -27 4 4 8 2 17
-3 20 -6 4 -7 14 -2 23 4 9 8 38 7 65 0 26 4 47 10 47 5 0 3 5 -5 10 -8 5 -10
10 -4 10 6 0 11 7 11 15 0 8 -5 15 -11 15 -7 0 -7 3 1 8 7 4 14 43 16 94 3 48
8 92 12 99 4 6 1 15 -6 20 -8 5 -9 9 -4 9 6 0 11 32 12 71 1 40 5 74 8 77 2 3
0 11 -6 19 -6 7 -7 13 -2 13 11 0 11 29 0 46 -3 6 -3 14 0 18 13 13 3 211 -23
456 -35 331 -154 719 -281 919 -53 83 -189 214 -254 244 -101 47 -198 58 -285
32z m826 -2359 c0 -2 -7 -7 -16 -10 -8 -3 -12 -2 -9 4 6 10 25 14 25 6z"/>
<path d="M10706 3518 c-18 -29 -24 -51 -31 -113 -3 -27 -10 -75 -15 -105 -5
-30 -12 -75 -15 -100 -3 -25 -7 -56 -10 -70 -2 -14 -7 -41 -10 -60 -3 -19 -8
-42 -10 -50 -2 -8 -7 -31 -10 -50 -9 -52 -61 -228 -82 -279 l-19 -44 -29 104
c-16 57 -30 109 -31 114 -13 57 -61 229 -86 305 -47 146 -83 210 -117 210 -18
0 -107 -88 -134 -132 -41 -66 -70 -123 -98 -195 -17 -42 -35 -84 -39 -92 -4
-9 -16 -36 -26 -61 -10 -25 -29 -70 -42 -100 l-24 -55 -24 80 c-27 88 -71 256
-78 295 -17 99 -39 199 -47 220 -19 50 -90 73 -128 43 -26 -21 -32 -69 -20
-158 4 -33 9 -78 12 -100 11 -92 40 -257 63 -353 13 -56 26 -113 28 -125 2
-12 16 -59 31 -105 42 -126 100 -160 193 -113 77 39 98 73 153 242 44 139 120
319 133 319 8 0 72 -209 116 -380 58 -224 79 -279 107 -286 37 -10 147 37 181
76 40 46 119 259 148 400 3 13 14 61 24 106 11 45 22 95 25 111 2 15 7 38 9
49 2 12 7 37 10 55 3 19 7 43 10 54 6 31 16 124 21 188 3 39 -1 71 -11 98 -29
72 -98 103 -128 57z"/>
<path d="M8626 3449 c-59 -39 -73 -60 -82 -124 -3 -27 -9 -59 -11 -70 -2 -11
-7 -191 -10 -401 -6 -429 -5 -439 56 -480 31 -20 43 -23 63 -15 35 13 43 51
53 261 12 250 17 337 20 380 2 25 4 54 4 65 1 13 10 3 27 -30 124 -242 251
-432 363 -543 97 -95 229 -161 270 -135 18 12 24 119 10 182 -8 38 -17 124
-24 226 -5 73 -5 308 0 511 2 83 1 160 -1 172 -12 45 -68 33 -136 -30 -31 -30
-37 -44 -44 -94 -13 -103 -7 -402 11 -494 2 -12 7 -43 10 -69 3 -25 8 -62 11
-81 l5 -35 -56 60 c-74 78 -161 212 -265 405 -46 85 -99 184 -118 220 -66 123
-84 149 -103 150 -3 0 -27 -14 -53 -31z"/>
<path d="M11070 3473 c-20 -8 -60 -44 -72 -66 -17 -32 -22 -115 -22 -347 0
-280 11 -582 23 -612 11 -30 57 -76 95 -95 53 -27 240 0 511 75 186 51 219 70
211 116 -10 55 -80 116 -134 116 -18 0 -49 -7 -69 -15 -38 -16 -198 -61 -248
-70 -16 -2 -39 -7 -50 -9 -32 -6 -97 -16 -131 -20 l-32 -4 4 161 c11 456 11
684 0 727 -10 40 -14 45 -41 47 -16 1 -37 -1 -45 -4z"/>
</g>
</svg>
